<svg xmlns="http://www.w3.org/2000/svg" width="16" height="14" viewBox="0 0 16 14"><defs></defs><g transform="translate(-460.002 -1186.001)"><path class="a" d="M474.8,1186.779h-2v-.389a.4.4,0,0,0-.8,0v.389h-8v-.389a.4.4,0,0,0-.8,0v.389h-2a1.185,1.185,0,0,0-1.2,1.167v10.889a1.185,1.185,0,0,0,1.2,1.167h13.6a1.185,1.185,0,0,0,1.2-1.167v-10.889A1.185,1.185,0,0,0,474.8,1186.779Zm-13.6.778h2v1.167a.4.4,0,0,0,.8,0v-1.167h8v1.167a.4.4,0,0,0,.8,0v-1.167h2a.4.4,0,0,1,.4.389v1.944H460.8v-1.944A.4.4,0,0,1,461.2,1187.557Zm13.6,11.667H461.2a.4.4,0,0,1-.4-.389v-8.167h14.4v8.167A.4.4,0,0,1,474.8,1199.223Z" transform="translate(0 0)"/></g></svg>