<svg xmlns="http://www.w3.org/2000/svg" width="24" height="23.999" viewBox="0 0 24 23.999"><defs></defs><path class="a" d="M40.488,2566.485A12,12,0,1,1,44,2558,11.922,11.922,0,0,1,40.488,2566.485ZM32,2547.262A10.737,10.737,0,1,0,42.739,2558,10.748,10.748,0,0,0,32,2547.262Z" transform="translate(-20.002 -2546.001)"/><path class="a" d="M29.641,2561h0a.64.64,0,0,0-.639.639v1.278a.64.64,0,0,0,.639.639h0a.64.64,0,0,0,.639-.639v-1.278A.64.64,0,0,0,29.641,2561Z" transform="translate(-17.641 -2556.974)"/><path class="a" d="M29.641,2551a.641.641,0,0,0-.639.639v11.269a.639.639,0,1,0,1.278,0V2551.64A.641.641,0,0,0,29.641,2551Z" transform="translate(-17.641 -2543.288)"/></svg>