<svg width="16" height="16" viewBox="0 0 16 16" fill="none" xmlns="http://www.w3.org/2000/svg">
<path fill-rule="evenodd" clip-rule="evenodd" d="M0 8C0 3.58172 3.58172 0 8 0C12.4183 0 16 3.58172 16 8C16 12.4183 12.4183 16 8 16C3.58172 16 0 12.4183 0 8Z" fill="#095797"/>
<path fill-rule="evenodd" clip-rule="evenodd" d="M6.94299 7.00707L6.01999 6.76007V5.88907L8.39899 5.60307H8.42499L8.78899 5.86307V12.1161L9.65999 12.2201V13.0001H6.03299V12.2201L6.94299 12.1031V7.00707ZM7.63201 4.58918C7.32001 4.58918 7.07301 4.49818 6.89101 4.31618C6.70901 4.13418 6.61801 3.90018 6.61801 3.61418C6.61801 3.28485 6.72201 3.01185 6.93001 2.79518C7.13801 2.57851 7.41534 2.47018 7.76201 2.47018C8.10868 2.47018 8.37301 2.56335 8.55501 2.74968C8.73701 2.93601 8.82801 3.16785 8.82801 3.44518C8.82801 3.79185 8.72401 4.06918 8.51601 4.27718C8.30801 4.48518 8.01768 4.58918 7.64501 4.58918H7.63201Z" fill="white"/>
</svg>
