<svg width="16" height="16" viewBox="0 0 16 16" fill="none" xmlns="http://www.w3.org/2000/svg">
    <path fill-rule="evenodd" clip-rule="evenodd" d="M0 8C0 3.58172 3.58172 0 8 0C12.4183 0 16 3.58172 16 8C16 12.4183 12.4183 16 8 16C3.58172 16 0 12.4183 0 8Z" fill="#095797"/>
    <path fill-rule="evenodd" clip-rule="evenodd" d="M6.51051 11.5065C6.51051 11.151 6.60572 10.8823 6.79615 10.7003C6.98658 10.5184 7.26376 10.4274 7.62769 10.4274C7.97893 10.4274 8.25082 10.5205 8.44336 10.7067C8.63591 10.8929 8.73218 11.1595 8.73218 11.5065C8.73218 11.8408 8.63485 12.1042 8.44019 12.2968C8.24553 12.4893 7.9747 12.5856 7.62769 12.5856C7.27222 12.5856 6.99716 12.4914 6.80249 12.3031C6.60783 12.1148 6.51051 11.8493 6.51051 11.5065ZM6.71387 9.33543V8.8657C6.71387 8.45945 6.80062 8.1061 6.97412 7.80564C7.14762 7.50518 7.46501 7.18569 7.92627 6.84714C8.37061 6.52976 8.66366 6.27162 8.80542 6.07273C8.94718 5.87384 9.01807 5.65167 9.01807 5.40623C9.01807 5.13117 8.91651 4.92169 8.71338 4.77781C8.51026 4.63393 8.22673 4.56199 7.86279 4.56199C7.22802 4.56199 6.50439 4.76935 5.69189 5.18406L5 3.79392C5.94368 3.26495 6.9445 3.00046 8.00244 3.00046C8.87418 3.00046 9.56714 3.20993 10.0813 3.62888C10.5955 4.04783 10.8525 4.60642 10.8525 5.30466C10.8525 5.77015 10.7467 6.17217 10.5352 6.51071C10.3236 6.84925 9.92155 7.23011 9.32911 7.65329C8.92286 7.95375 8.66578 8.18226 8.55787 8.33884C8.44996 8.49542 8.396 8.70066 8.396 8.95456V9.33542L6.71387 9.33543Z" fill="white"/>
</svg>
