<svg xmlns="http://www.w3.org/2000/svg" width="16.5" height="17" viewBox="0 0 16.5 17">
  <g id="icone-personne" transform="translate(-234.5 -1018.5)">
    <rect id="Rectangle_816" data-name="Rectangle 816" width="16" height="16" transform="translate(235 1019)" fill="none"/>
    <path id="Union_5" data-name="Union 5" d="M1.184,16A1.194,1.194,0,0,1,0,14.8a4.82,4.82,0,0,1,.967-2.64,5.632,5.632,0,0,1,2.265-1.776A10.419,10.419,0,0,1,7.5,9.6a10.424,10.424,0,0,1,4.268.784,5.645,5.645,0,0,1,2.265,1.776A4.82,4.82,0,0,1,15,14.8,1.194,1.194,0,0,1,13.816,16Zm.442-3.395a4.091,4.091,0,0,0-.836,2.2.4.4,0,0,0,.395.4H13.816a.4.4,0,0,0,.395-.4,4.083,4.083,0,0,0-.836-2.2c-1.091-1.443-3.122-2.2-5.875-2.2S2.715,11.162,1.626,12.605ZM3.158,4.4a4.343,4.343,0,1,1,8.685,0,4.343,4.343,0,1,1-8.685,0Zm.789,0A3.553,3.553,0,1,0,7.5.8,3.582,3.582,0,0,0,3.947,4.4Z" transform="translate(235 1019)"   stroke-width="1"/>
  </g>
</svg>
