<svg xmlns="http://www.w3.org/2000/svg" width="16" height="16" viewBox="0 0 16 16"><defs></defs><g transform="translate(-220.002 -1225.002)"><path class="a" d="M235.733,1229.024a.4.4,0,0,0-.515.244,2.02,2.02,0,0,1-1.9,1.334,2.274,2.274,0,0,1-2.023-2.066,4.735,4.735,0,0,0-1.143-2.4,3.309,3.309,0,0,0-2.482-1.139,3.625,3.625,0,0,0-3.61,3.217A4.421,4.421,0,0,0,220,1232.6v4a4.438,4.438,0,0,0,8.876,0v-4a4.421,4.421,0,0,0-4.009-4.379,2.821,2.821,0,0,1,2.8-2.421,3.163,3.163,0,0,1,2.83,2.866,3.647,3.647,0,0,0,.884,1.854,2.582,2.582,0,0,0,1.935.881,2.829,2.829,0,0,0,2.663-1.866.4.4,0,0,0-.246-.51Zm-11.7,0v3.178h-3.2A3.621,3.621,0,0,1,224.036,1229.024Zm.4,11.177a3.62,3.62,0,0,1-3.631-3.6V1233h7.262v3.6A3.62,3.62,0,0,1,224.44,1240.2Zm3.608-8h-3.2v-3.178A3.621,3.621,0,0,1,228.048,1232.2Z" transform="translate(0)"/></g></svg>