<svg xmlns="http://www.w3.org/2000/svg" viewBox="0 0 19.25 19.25"><defs><style>.cls-1{fill:#fff;stroke:#fff;stroke-miterlimit:10;stroke-width:0.25px;}</style></defs><title>x_rond_0_25</title><g id="Calque_2" data-name="Calque 2"><g id="Layer_1" data-name="Layer 1"><path class="cls-1" d="M14.46,13.25,10.38,9.63,14.46,6a.5.5,0,1,0-.67-.75L9.63,9,5.46,5.25A.5.5,0,1,0,4.79,6L8.87,9.63,4.79,13.25a.5.5,0,0,0,.34.88A.55.55,0,0,0,5.46,14l4.17-3.71L13.79,14a.55.55,0,0,0,.34.13.5.5,0,0,0,.33-.88Z"/><path class="cls-1" d="M9.63,19.13a9.51,9.51,0,0,1-9.5-9.5A9.49,9.49,0,0,1,9.63.13a9.51,9.51,0,0,1,9.5,9.5,9.53,9.53,0,0,1-9.5,9.5Zm0-18a8.5,8.5,0,1,0,8.5,8.5A8.51,8.51,0,0,0,9.63,1.13Z"/></g></g></svg>