<svg width="200" height="40" viewBox="0 0 200 40" fill="none" xmlns="http://www.w3.org/2000/svg">
<path fill-rule="evenodd" clip-rule="evenodd" d="M85.0128 0.399994C84.3855 1.01782 82.3097 1.08071 81.2932 1.08071L79.7132 1.08072V1.21686C81.3448 2.24339 81.3146 4.71522 81.2899 6.73707V6.73733V6.73759C81.287 6.97704 81.2841 7.21017 81.2841 7.43384V28.4703C81.2841 28.5858 81.2849 28.7014 81.2856 28.8166C81.2945 30.2045 81.3031 31.5441 80.0096 32.1376V32.2768C80.2742 32.3177 80.5498 32.3616 80.8352 32.407L80.8353 32.407L80.8353 32.407C82.7921 32.7186 85.2089 33.1035 87.7129 33.1035C95.3929 33.1035 100.247 28.4703 100.247 21.3033C100.247 15.0497 96.1553 10.878 91.3428 10.878C90.3297 10.878 89.3166 11.0163 88.3472 11.3825L86.0677 15.2785C87.2081 14.6392 88.263 14.2742 89.6135 14.2742C93.8746 14.2742 95.9418 17.6968 95.9418 22.1262C95.9418 26.6436 93.2831 29.8843 88.6423 29.8843C87.4609 29.8843 86.2792 29.6577 85.1392 29.338V0.399994H85.0128ZM37.6998 36.9735C32.9638 37.7468 28.4124 36.2571 23.5745 30.7308C28.2471 28.3881 31.137 22.5569 31.137 17.1392L31.1361 16.4658C31.052 7.19336 24.0763 1.07044 15.7596 1.07044C7.42701 1.07044 0.0634272 7.44279 0.00129648 16.7889L0 17.4149C0 26.5064 6.7548 33.2566 15.0378 33.2566C16.2273 33.2566 17.3733 33.0718 18.5201 32.7969C23.9456 37.8708 28.7804 40.0313 32.9586 39.529C34.9402 39.2907 37.0341 38.5046 38.2918 36.8731L37.6998 36.9735ZM15.7163 29.9507C9.30316 29.9507 4.84238 22.7267 4.84238 16.5896C4.84238 16.5271 4.84238 15.9597 4.84368 15.899C4.92307 9.95269 8.77808 4.37559 15.5048 4.37559C22.5828 4.37559 26.2338 11.0624 26.2929 17.3973V18.0573C26.2929 24.8087 22.0879 29.9507 15.7163 29.9507ZM54.0289 27.4954L54.0284 10.789H53.9011C53.3069 11.3351 51.107 11.3795 50.175 11.3795H48.5576V11.5148C50.2213 12.5356 50.2017 13.9894 50.1775 15.782C50.1745 16.0022 50.1715 16.2275 50.1715 16.4577L50.1728 23.529C50.1728 27.0616 46.6952 29.5432 43.8907 29.5432C40.1973 29.5432 38.6641 26.925 38.6641 22.701V10.789H38.5373C37.9431 11.3351 35.7294 11.38 34.7968 11.38H33.1933V11.5156C34.8575 12.5362 34.8378 13.9903 34.8137 15.7824C34.8107 16.0025 34.8076 16.2276 34.8076 16.4577V23.5036C34.8076 29.9541 37.6104 33.0185 42.6177 33.0185C45.5909 33.0185 48.6435 31.9657 50.1728 29.4505V32.499H55.6428V32.3616C53.9794 31.4211 53.9988 29.9695 54.0229 28.1716C54.0258 27.9513 54.0289 27.7258 54.0289 27.4954ZM68.3697 10.8766C74.1447 10.8766 78.0951 15.3254 77.9264 21.2222L62.3385 21.2222C62.4239 26.845 66.0338 30.1173 70.8325 30.1173C73.3815 30.1173 75.8433 29.3332 77.7978 27.6738H77.9264L75.8028 31.9749C73.9756 32.7917 71.9374 33.1083 69.9411 33.1083C62.7199 33.1083 57.7543 28.2287 57.7543 21.821C57.7543 15.4616 62.0412 10.8766 68.3697 10.8766ZM67.9876 13.8676C65.1409 13.8676 63.0181 15.6896 62.5073 18.5584H73.4653C72.9989 15.37 71.0453 13.8676 67.9876 13.8676ZM72.6302 7.0871V2.49429C69.8431 3.74084 67.2569 6.07107 65.5277 8.33795V10.1274C68.8078 7.92214 71.3515 7.38438 72.2645 7.19136C72.503 7.14094 72.6302 7.11404 72.6302 7.0871ZM123.205 21.2222C123.377 15.3254 119.426 10.8766 113.65 10.8766C107.322 10.8766 103.034 15.4616 103.034 21.821C103.034 28.2287 108.002 33.1083 115.221 33.1083C117.218 33.1083 119.258 32.7917 121.082 31.9749L123.205 27.6738H123.079C121.125 29.3332 118.661 30.1173 116.113 30.1173C111.314 30.1173 107.704 26.845 107.619 21.2222L123.205 21.2222ZM107.788 18.5584C108.299 15.6896 110.421 13.8676 113.268 13.8676C116.326 13.8676 118.279 15.37 118.747 18.5584H107.788ZM142.071 16.1208H142.197V11.4235C140.712 11.0599 139.14 10.8803 137.61 10.8803C131.199 10.8803 125.492 14.6519 125.492 22.5462C125.492 28.5129 130.604 33.109 137.142 33.109C139.013 33.109 140.966 32.9285 142.75 32.2023L144.959 27.8694H144.831C143.175 29.2 140.796 30.1187 138.63 30.1187C133.916 30.1187 129.798 26.6297 129.798 21.3526C129.798 16.993 132.768 13.8706 136.888 13.8706C138.799 13.8706 140.839 14.6046 142.071 16.1208Z" fill="white"/>
<path fill-rule="evenodd" clip-rule="evenodd" d="M179.299 1.08633H200V13.7535H179.299V1.08633ZM187.501 11.3508C187.501 11.3508 187.514 12.514 188.814 12.1026C188.814 12.1026 188.867 13.1408 189.649 13.5164C190.429 13.1408 190.482 12.1026 190.482 12.1026C191.783 12.514 191.798 11.3508 191.798 11.3508C190.641 11.5546 190.528 10.5832 190.528 10.5832H192.834V9.49754H191.742C191.742 9.49754 191.928 8.04877 192.999 8.04877C193.99 8.04877 194.127 9.14428 193.946 9.59835C194.441 9.68235 195.168 8.82592 195.168 7.81785C195.168 6.53409 194.148 5.84826 193.247 5.84826C191.793 5.84826 190.704 7.52406 190.704 9.49754H190.259C190.259 9.49754 190.165 8.54936 190.363 7.68001C190.506 7.05183 190.727 6.54194 190.926 6.08434C191.159 5.54775 191.36 5.08306 191.368 4.58387C191.387 3.54202 190.985 3.0664 190.489 2.47965C190.219 2.16022 189.922 1.80785 189.649 1.31325C189.375 1.80729 189.078 2.15942 188.809 2.47856C188.313 3.06582 187.911 3.54138 187.927 4.58387C187.936 5.08354 188.138 5.54864 188.371 6.08587L188.371 6.08589C188.57 6.5431 188.791 7.05255 188.935 7.68001C189.134 8.54935 189.037 9.49754 189.037 9.49754H188.594C188.594 7.52406 187.504 5.84826 186.05 5.84826C185.15 5.84826 184.129 6.53408 184.129 7.81785C184.129 8.82593 184.856 9.68235 185.352 9.59835C185.172 9.14428 185.308 8.04877 186.297 8.04877C187.37 8.04877 187.554 9.49754 187.554 9.49754H186.463V10.5832H188.768C188.768 10.5832 188.654 11.5546 187.501 11.3508ZM152.557 1.08645H173.258V13.7536H152.557V1.08645ZM160.759 11.351C160.759 11.351 160.772 12.5141 162.073 12.1027H162.073C162.073 12.1027 162.124 13.1409 162.906 13.5166C163.689 13.1409 163.741 12.1027 163.741 12.1027C165.04 12.5141 165.055 11.351 165.055 11.351C163.901 11.5547 163.787 10.5833 163.787 10.5833H166.092V9.49766H164.999C164.999 9.49766 165.185 8.04888 166.256 8.04888C167.247 8.04888 167.384 9.1444 167.203 9.59846C167.699 9.68246 168.425 8.82604 168.425 7.81797C168.425 6.53421 167.406 5.84837 166.504 5.84837C165.05 5.84837 163.961 7.52418 163.961 9.49766H163.518C163.518 9.49766 163.422 8.54948 163.62 7.68013C163.764 7.05275 163.985 6.54335 164.183 6.0862C164.416 5.54888 164.618 5.08372 164.627 4.58399C164.644 3.54124 164.243 3.0657 163.746 2.47825C163.477 2.15922 163.179 1.80718 162.906 1.31337C162.633 1.80762 162.336 2.15984 162.066 2.4791C161.57 3.06616 161.169 3.54175 161.187 4.58399C161.194 5.08365 161.396 5.54875 161.629 6.08597L161.629 6.08597C161.828 6.54319 162.049 7.05265 162.192 7.68013C162.391 8.54947 162.297 9.49766 162.297 9.49766H161.85C161.85 7.52418 160.761 5.84837 159.307 5.84837C158.407 5.84837 157.387 6.5342 157.387 7.81797C157.387 8.82605 158.114 9.68246 158.609 9.59846C158.429 9.1444 158.565 8.04888 159.556 8.04888C160.627 8.04888 160.814 9.49766 160.814 9.49766H159.72V10.5833H162.025C162.025 10.5833 161.913 11.5547 160.759 11.351ZM173.258 19.811H152.557V32.4777H173.258V19.811ZM162.073 30.8268C160.772 31.2374 160.759 30.0747 160.759 30.0747C161.912 30.2789 162.025 29.3065 162.025 29.3065H159.72V28.2214H160.814C160.814 28.2214 160.627 26.773 159.555 26.773C158.565 26.773 158.429 27.869 158.609 28.3226C158.114 28.4049 157.387 27.5498 157.387 26.5413C157.387 25.2583 158.406 24.5717 159.307 24.5717C160.761 24.5717 161.85 26.2479 161.85 28.2214H162.296C162.296 28.2214 162.391 27.2736 162.192 26.4047C162.049 25.7772 161.828 25.2677 161.629 24.8104C161.396 24.2731 161.194 23.8078 161.187 23.3081C161.169 22.2642 161.571 21.7881 162.067 21.2006C162.336 20.8816 162.633 20.5297 162.906 20.0362C163.179 20.5293 163.476 20.8809 163.745 21.1997C164.242 21.7877 164.644 22.2637 164.627 23.3081C164.618 23.8079 164.416 24.2732 164.183 24.8107C163.985 25.2679 163.764 25.7774 163.62 26.4047C163.422 27.2736 163.517 28.2214 163.517 28.2214H163.961C163.961 26.2479 165.05 24.5717 166.504 24.5717C167.406 24.5717 168.425 25.2583 168.425 26.5413C168.425 27.5498 167.699 28.4049 167.203 28.3226C167.384 27.869 167.247 26.773 166.256 26.773C165.185 26.773 164.999 28.2214 164.999 28.2214H166.092V29.3065H163.787C163.787 29.3065 163.901 30.2789 165.055 30.0747C165.055 30.0747 165.04 31.2374 163.741 30.8268C163.741 30.8268 163.689 31.8638 162.906 32.239C162.127 31.8652 162.074 30.8345 162.073 30.8269L162.073 30.8268ZM200 19.811H179.299V32.4777H200V19.811ZM188.814 30.8268C187.514 31.2374 187.5 30.0747 187.5 30.0747C188.654 30.2789 188.768 29.3065 188.768 29.3065H186.463V28.2214H187.554C187.554 28.2214 187.37 26.773 186.297 26.773C185.307 26.773 185.172 27.869 185.352 28.3226C184.856 28.4049 184.129 27.5498 184.129 26.5413C184.129 25.2583 185.149 24.5717 186.05 24.5717C187.504 24.5717 188.594 26.2479 188.594 28.2214H189.037C189.037 28.2214 189.133 27.2736 188.935 26.4047C188.791 25.7773 188.569 25.2677 188.371 24.8105C188.138 24.2731 187.936 23.8078 187.927 23.3081C187.911 22.264 188.313 21.7879 188.809 21.2002C189.079 20.8813 189.376 20.5295 189.649 20.0362C189.921 20.53 190.219 20.8821 190.488 21.2013C190.984 21.7885 191.386 22.2646 191.368 23.3081C191.36 23.8073 191.159 24.2722 190.926 24.8089C190.727 25.2666 190.506 25.7766 190.363 26.4047C190.165 27.2736 190.259 28.2214 190.259 28.2214H190.704C190.704 26.2479 191.793 24.5717 193.247 24.5717C194.148 24.5717 195.168 25.2583 195.168 26.5413C195.168 27.5498 194.441 28.4049 193.946 28.3226C194.127 27.869 193.989 26.773 192.999 26.773C191.928 26.773 191.742 28.2214 191.742 28.2214H192.834V29.3065H190.527C190.527 29.3065 190.641 30.2789 191.798 30.0747C191.798 30.0747 191.783 31.2374 190.482 30.8268C190.482 30.8268 190.429 31.8638 189.649 32.239C188.867 31.8638 188.814 30.8268 188.814 30.8268Z" fill="white"/>
</svg>
