<svg xmlns="http://www.w3.org/2000/svg" viewBox="0 0 19.25 19.25"><defs><style>.cls-1{fill:#fff;stroke:#fff;stroke-miterlimit:10;stroke-width:0.25px;}</style></defs><title>v_0_25</title><g id="Calque_2" data-name="Calque 2"><g id="Layer_1_-_copie" data-name="Layer 1 - copie"><path class="cls-1" d="M9.63,19.12A9.49,9.49,0,0,1,.13,9.63,9.49,9.49,0,0,1,9.63.13a9.51,9.51,0,0,1,9.5,9.5,9.51,9.51,0,0,1-9.5,9.49Zm0-18a8.5,8.5,0,1,0,8.5,8.49A8.5,8.5,0,0,0,9.63,1.13Z"/><path class="cls-1" d="M7.63,13.62a.5.5,0,0,1-.36-.14l-3-3A.5.5,0,0,1,5,9.77l2.64,2.65,6.65-6.65a.5.5,0,0,1,.71.71l-7,7a.5.5,0,0,1-.36.14Z"/></g></g></svg>