<?xml version="1.0" encoding="utf-8"?>
<!-- Generator: Adobe Illustrator 22.1.0, SVG Export Plug-In . SVG Version: 6.00 Build 0)  -->
<svg version="1.1" id="Calque_1" xmlns="http://www.w3.org/2000/svg" xmlns:xlink="http://www.w3.org/1999/xlink" x="0px" y="0px"
	 viewBox="0 0 18.6 18.8" style="enable-background:new 0 0 18.6 18.8;" xml:space="preserve">
<style type="text/css">
	.st0{fill:#095797;}
</style>
<title>Fichier 6</title>
<g id="Calque_2_1_">
	<g id="iconographie">
		<path class="st0" d="M14.7,8.1c-0.4,0-0.7,0.3-0.7,0.7v8.6H1.5V4.6h8.3c0.4,0,0.7-0.3,0.7-0.7c0-0.4-0.3-0.7-0.7-0.7H0v15.7h15.4
			v-10C15.4,8.4,15.1,8.1,14.7,8.1C14.7,8.1,14.7,8.1,14.7,8.1z"/>
		<path class="st0" d="M11.9,0c-0.4,0-0.7,0.3-0.7,0.7c0,0,0,0,0,0c0,0.4,0.3,0.7,0.7,0.7h4.1l-8.9,9c-0.3,0.3-0.3,0.7,0,1
			c0.1,0.1,0.3,0.2,0.5,0.2c0.2,0,0.4-0.1,0.5-0.2l8.9-9v4.1c0,0.4,0.2,0.8,0.6,0.8c0.4,0,0.8-0.2,0.8-0.6c0-0.1,0-0.1,0-0.2V0H11.9
			z"/>
	</g>
</g>
</svg>
