<svg width="16" height="16" viewBox="0 0 16 16" fill="none" xmlns="http://www.w3.org/2000/svg">
<path d="M7.99998 16C7.87758 16 7.76158 15.944 7.68558 15.8472C7.63998 15.7888 6.55117 14.396 5.44798 12.3392C4.79838 11.1288 4.27998 9.94 3.90798 8.8064C3.43838 7.3768 3.20078 6.0288 3.20078 4.8C3.20078 2.1536 5.35438 0 8.00078 0C10.6472 0 12.8008 2.1536 12.8008 4.8C12.8008 6.0288 12.5624 7.376 12.0936 8.8064C11.7216 9.94 11.2032 11.1288 10.5536 12.3392C9.44958 14.396 8.36158 15.7888 8.31598 15.8472C8.23998 15.944 8.12398 16 8.00158 16H7.99998ZM7.99998 0.8C5.79438 0.8 3.99998 2.5944 3.99998 4.8C3.99998 7.4032 5.17038 10.1312 6.15278 11.9608C6.87438 13.3056 7.59998 14.372 7.99998 14.9288C8.40158 14.3696 9.13197 13.2968 9.85437 11.948C10.8328 10.1216 12 7.3984 12 4.8C12 2.5944 10.2056 0.8 7.99998 0.8Z" fill="#223654"/>
<path d="M7.99999 7.2C6.67679 7.2 5.59999 6.1232 5.59999 4.8C5.59999 3.4768 6.67679 2.4 7.99999 2.4C9.32319 2.4 10.4 3.4768 10.4 4.8C10.4 6.1232 9.32319 7.2 7.99999 7.2ZM7.99999 3.2C7.11759 3.2 6.39999 3.9176 6.39999 4.8C6.39999 5.6824 7.11759 6.4 7.99999 6.4C8.88239 6.4 9.59999 5.6824 9.59999 4.8C9.59999 3.9176 8.88239 3.2 7.99999 3.2Z" fill="#223654"/>
</svg>
