<?xml version="1.0" encoding="UTF-8"?><svg id="Calque_2" xmlns="http://www.w3.org/2000/svg" viewBox="0 0 12 20"><defs><style>.cls-1{fill:#223654;}</style></defs><g id="Layer_1"><g><path class="cls-1" d="M6.5,20h-1c-.28,0-.5-.22-.5-.5s.22-.5,.5-.5h1c.28,0,.5,.22,.5,.5s-.22,.5-.5,.5Z"/><path class="cls-1" d="M6,0C2.69,0,0,2.69,0,6c0,2.11,1.01,3.83,1.06,3.9,.27,.44,.65,1.23,.83,1.71l.8,2.13c.12,.32,.35,.61,.64,.83-.2,.25-.32,.58-.32,.93,0,.38,.14,.73,.38,1-.24,.27-.38,.62-.38,1,0,.83,.67,1.5,1.5,1.5h3c.83,0,1.5-.67,1.5-1.5,0-.38-.14-.73-.38-1,.24-.27,.38-.62,.38-1,0-.35-.12-.67-.32-.93,.29-.22,.52-.51,.64-.83l.8-2.13c.18-.48,.56-1.27,.83-1.71,.04-.07,1.06-1.79,1.06-3.9C12,2.69,9.31,0,6,0Zm1.5,18h-3c-.28,0-.5-.22-.5-.5s.22-.5,.5-.5h3c.28,0,.5,.22,.5,.5s-.22,.5-.5,.5Zm.5-2.5c0,.28-.22,.5-.5,.5h-3c-.28,0-.5-.22-.5-.5s.22-.5,.5-.5h3c.28,0,.5,.22,.5,.5Zm2.08-6.12c-.3,.49-.7,1.34-.91,1.88l-.8,2.13c-.12,.32-.54,.61-.88,.61h-3c-.34,0-.76-.29-.88-.61l-.8-2.13c-.2-.54-.61-1.38-.91-1.88,0-.01-.91-1.54-.91-3.38C1,3.24,3.24,1,6,1s5,2.24,5,5c0,1.83-.91,3.37-.92,3.38Z"/></g></g></svg>