<?xml version="1.0" encoding="UTF-8"?><svg id="Calque_2" xmlns="http://www.w3.org/2000/svg" viewBox="0 0 17 20"><defs><style>.cls-1{fill:#223654;}</style></defs><g id="Layer_1"><g><path class="cls-1" d="M15.5,20H1.5c-.83,0-1.5-.67-1.5-1.5V4.5c0-.83,.67-1.5,1.5-1.5h1c.28,0,.5,.22,.5,.5s-.22,.5-.5,.5H1.5c-.28,0-.5,.22-.5,.5v14c0,.28,.22,.5,.5,.5H15.5c.28,0,.5-.22,.5-.5V4.5c0-.28-.22-.5-.5-.5h-1c-.28,0-.5-.22-.5-.5s.22-.5,.5-.5h1c.83,0,1.5,.67,1.5,1.5v14c0,.83-.67,1.5-1.5,1.5Z"/><path class="cls-1" d="M12.5,5H4.5c-.28,0-.5-.22-.5-.5,0-1,.45-1.79,1.28-2.2,.28-.14,.55-.21,.76-.25,.21-1.16,1.24-2.05,2.46-2.05s2.25,.88,2.46,2.05c.22,.04,.49,.12,.76,.25,.82,.41,1.27,1.18,1.28,2.17,0,0,0,.02,0,.03,0,.28-.22,.5-.5,.5h0Zm-7.44-1h6.88c-.1-.36-.31-.62-.64-.79-.39-.2-.8-.21-.8-.21-.28,0-.5-.22-.5-.5,0-.83-.67-1.5-1.5-1.5s-1.5,.67-1.5,1.5c0,.28-.22,.5-.5,.5,0,0-.41,0-.8,.21-.33,.17-.54,.43-.64,.79Z"/><path class="cls-1" d="M8.5,3c-.13,0-.26-.05-.35-.15-.09-.09-.15-.22-.15-.35s.05-.26,.15-.35c.09-.09,.22-.15,.35-.15s.26,.05,.35,.15c.09,.09,.15,.22,.15,.35s-.05,.26-.15,.35c-.09,.09-.22,.15-.35,.15Z"/><path class="cls-1" d="M13.5,8H3.5c-.28,0-.5-.22-.5-.5s.22-.5,.5-.5H13.5c.28,0,.5,.22,.5,.5s-.22,.5-.5,.5Z"/><path class="cls-1" d="M11.5,11H3.5c-.28,0-.5-.22-.5-.5s.22-.5,.5-.5H11.5c.28,0,.5,.22,.5,.5s-.22,.5-.5,.5Z"/><path class="cls-1" d="M13.5,13H3.5c-.28,0-.5-.22-.5-.5s.22-.5,.5-.5H13.5c.28,0,.5,.22,.5,.5s-.22,.5-.5,.5Z"/><path class="cls-1" d="M13.5,15H3.5c-.28,0-.5-.22-.5-.5s.22-.5,.5-.5H13.5c.28,0,.5,.22,.5,.5s-.22,.5-.5,.5Z"/><path class="cls-1" d="M8.5,17H3.5c-.28,0-.5-.22-.5-.5s.22-.5,.5-.5h5c.28,0,.5,.22,.5,.5s-.22,.5-.5,.5Z"/></g></g></svg>