<?xml version="1.0" encoding="UTF-8"?>
<svg id="Calque_2" data-name="Calque 2" xmlns="http://www.w3.org/2000/svg" viewBox="0 0 105.62 30.35">
  <defs>
    <style>
      .cls-1 {
        fill-rule: evenodd;
      }

      .cls-1, .cls-2 {
        fill: #fff;
        stroke-width: 0px;
      }
    </style>
  </defs>
  <g id="Calque_1-2" data-name="Calque 1">
    <g>
      <g>
        <path class="cls-2" d="m42.48,25.57v-6.61h-.05c-.23.22-1.1.23-1.47.23h-.64v.05c.74.45.64,1.12.64,1.95v2.8c0,1.4-1.37,2.38-2.48,2.38-1.46,0-2.06-1.03-2.06-2.71v-4.71h-.05c-.23.22-1.11.23-1.48.23h-.63v.05c.74.45.64,1.12.64,1.95v2.79c0,2.55,1.11,3.76,3.08,3.76,1.17,0,2.38-.42,2.98-1.41v1.2h2.16v-.05c-.74-.42-.64-1.09-.64-1.93Z"/>
        <path class="cls-2" d="m45.83,22.03c.2-1.13,1.04-1.86,2.16-1.86,1.21,0,1.98.59,2.16,1.86h-4.33Zm6.09,1.05c.07-2.33-1.49-4.09-3.77-4.09-2.5,0-4.19,1.81-4.19,4.33s1.96,4.46,4.81,4.46c.79,0,1.59-.12,2.31-.45l.84-1.7h-.05c-.77.66-1.74.97-2.75.97-1.89,0-3.32-1.29-3.35-3.52h6.15Z"/>
        <path class="cls-2" d="m53.25,15.12c.4,0,1.22-.03,1.47-.27h.05v11.44c.45.13.92.22,1.38.22,1.83,0,2.88-1.28,2.88-3.07s-.82-3.11-2.5-3.11c-.53,0-.95.14-1.4.4l.9-1.54c.38-.14.78-.2,1.18-.2,1.9,0,3.51,1.65,3.51,4.12,0,2.83-1.91,4.67-4.95,4.67-1.13,0-2.22-.2-3.04-.33v-.05c.55-.25.5-.85.5-1.45v-8.32c0-.84.1-2-.62-2.46v-.05h.62Z"/>
        <path class="cls-2" d="m63.71,22.03c.2-1.13,1.04-1.86,2.17-1.86,1.21,0,1.98.59,2.16,1.86h-4.33Zm6.09,1.05c.07-2.33-1.49-4.09-3.77-4.09-2.5,0-4.19,1.81-4.19,4.33s1.96,4.46,4.81,4.46c.79,0,1.59-.12,2.31-.45l.84-1.7h-.05c-.77.66-1.74.97-2.75.97-1.9,0-3.32-1.29-3.35-3.52h6.15Z"/>
        <path class="cls-2" d="m77.29,21.07h-.05c-.49-.6-1.29-.89-2.05-.89-1.63,0-2.8,1.24-2.8,2.96,0,2.09,1.62,3.47,3.49,3.47.85,0,1.79-.36,2.45-.89h.05l-.87,1.71c-.71.29-1.48.36-2.21.36-2.58,0-4.6-1.82-4.6-4.18,0-3.12,2.25-4.61,4.78-4.61.6,0,1.22.07,1.81.21v1.86Z"/>
        <path class="cls-1" d="m49.82,17.5v-1.81c-1.1.49-2.12,1.41-2.8,2.31v.71c1.63-1.1,2.8-1.15,2.8-1.2Z"/>
        <path class="cls-2" d="m27.35,26.54c-2.53,0-4.29-2.86-4.29-5.28v-.27c.03-2.35,1.55-4.56,4.21-4.56,2.79,0,4.24,2.64,4.26,5.15v.26c0,2.67-1.66,4.7-4.18,4.7Zm8.68,2.78c-1.87.31-3.67-.28-5.58-2.47,1.84-.93,2.99-3.23,2.99-5.38v-.27c-.03-3.67-2.79-6.09-6.07-6.09s-6.2,2.52-6.22,6.21c0,.02,0,.23,0,.25,0,3.6,2.67,6.26,5.94,6.26.47,0,.92-.07,1.38-.18,2.14,2.01,4.05,2.86,5.7,2.66.78-.09,1.61-.41,2.11-1.05l-.23.04Z"/>
      </g>
      <g>
        <path class="cls-2" d="m87.02,17.53c-.64.2-.64-.37-.64-.37.57.1.62-.38.62-.38h-1.13v-.53h.54s-.09-.71-.62-.71c-.49,0-.55.54-.46.76-.24.04-.6-.38-.6-.87,0-.63.5-.97.94-.97.71,0,1.25.82,1.25,1.79h.22s.05-.47-.05-.89c-.15-.67-.49-1.07-.49-1.52-.01-.79.46-.92.84-1.61.38.69.86.82.84,1.61,0,.45-.34.85-.49,1.52-.1.43-.05.89-.05.89h.22c0-.97.53-1.79,1.25-1.79.44,0,.94.34.94.97,0,.5-.36.92-.6.87.09-.22.02-.76-.46-.76-.53,0-.62.71-.62.71h.54v.53h-1.13s.06.48.62.38c0,0,0,.57-.65.37,0,0-.03.51-.41.69-.38-.19-.41-.69-.41-.69Zm5.49-5.41h-10.16v6.22h10.16v-6.22Z"/>
        <path class="cls-2" d="m100.14,17.53c-.64.2-.64-.37-.64-.37.57.1.62-.38.62-.38h-1.13v-.53h.54s-.09-.71-.62-.71c-.49,0-.55.54-.46.76-.24.04-.6-.38-.6-.87,0-.63.5-.97.94-.97.71,0,1.25.82,1.25,1.79h.22s.05-.47-.05-.89c-.15-.67-.49-1.07-.49-1.52-.01-.79.46-.92.84-1.61.38.69.86.82.84,1.61,0,.45-.34.85-.49,1.52-.1.43-.05.89-.05.89h.22c0-.97.53-1.79,1.25-1.79.44,0,.94.34.94.97,0,.5-.36.92-.6.87.09-.22.02-.76-.46-.76-.53,0-.62.71-.62.71h.54v.53h-1.13s.06.48.62.38c0,0,0,.57-.65.37,0,0-.03.51-.41.69-.38-.19-.41-.69-.41-.69Zm5.49-5.41h-10.16v6.22h10.16v-6.22Z"/>
        <path class="cls-2" d="m87.02,26.73c-.64.2-.64-.37-.64-.37.57.1.62-.38.62-.38h-1.13v-.53h.54s-.09-.71-.62-.71c-.49,0-.55.54-.46.76-.24.04-.6-.38-.6-.88,0-.63.5-.97.94-.97.71,0,1.25.82,1.25,1.79h.22s.05-.47-.05-.89c-.15-.67-.49-1.07-.49-1.52-.01-.79.46-.92.84-1.61.38.69.86.82.84,1.61,0,.45-.34.85-.49,1.52-.1.43-.05.89-.05.89h.22c0-.97.53-1.79,1.25-1.79.44,0,.94.34.94.97,0,.5-.36.92-.6.88.09-.22.02-.76-.46-.76-.53,0-.62.71-.62.71h.54v.53h-1.13s.06.48.62.38c0,0,0,.57-.65.37,0,0-.03.51-.41.69-.38-.18-.41-.69-.41-.69Zm5.49-5.41h-10.16v6.22h10.16v-6.22Z"/>
        <path class="cls-2" d="m100.14,26.73c-.64.2-.64-.37-.64-.37.57.1.62-.38.62-.38h-1.13v-.53h.54s-.09-.71-.62-.71c-.49,0-.55.54-.46.76-.24.04-.6-.38-.6-.88,0-.63.5-.97.94-.97.71,0,1.25.82,1.25,1.79h.22s.05-.47-.05-.89c-.15-.67-.49-1.07-.49-1.52-.01-.79.46-.92.84-1.61.38.69.86.82.84,1.61,0,.45-.34.85-.49,1.52-.1.43-.05.89-.05.89h.22c0-.97.53-1.79,1.25-1.79.44,0,.94.34.94.97,0,.5-.36.92-.6.88.09-.22.02-.76-.46-.76-.53,0-.62.71-.62.71h.54v.53h-1.13s.06.48.62.38c0,0,0,.57-.65.37,0,0-.03.51-.41.69-.38-.18-.41-.69-.41-.69Zm5.49-5.41h-10.16v6.22h10.16v-6.22Z"/>
      </g>
      <g>
        <path class="cls-2" d="m3.09.24l.11,2.5c0,.16,0,.29,0,.39,0,.15,0,.35-.02.6.09-.31.23-.65.4-1.01L4.73.24h2.11l-1.06,4.92h-1.21l.62-2.97c.07-.35.16-.72.27-1.1h-.04l-1.92,4.07h-1.21l-.18-4.07h-.06c-.12.7-.19,1.09-.21,1.18l-.62,2.88H0L1.05.24h2.04Z"/>
        <path class="cls-2" d="m8.89,1.51l-.79,3.65h-1.24l.79-3.65h1.24Zm.26-1.27l-.13.65h-1.24l.12-.65h1.25Z"/>
        <path class="cls-2" d="m12.98,5.17h-1.27l.38-1.83c.03-.13.04-.26.04-.36,0-.35-.18-.54-.46-.54-.5,0-.84.4-1.01,1.19l-.33,1.54h-1.28l.78-3.68h1.14l-.14.65c.41-.47.88-.71,1.39-.71.75,0,1.19.46,1.19,1.28,0,.23-.04.57-.13,1.01l-.31,1.45Z"/>
        <path class="cls-2" d="m16,1.51l-.79,3.65h-1.24l.79-3.65h1.24Zm.26-1.27l-.13.65h-1.24l.12-.65h1.25Z"/>
        <path class="cls-2" d="m19.35,2.43c-.36-.12-.67-.21-.96-.21-.37,0-.57.13-.57.33,0,.26.29.28.75.48.51.21.75.48.75.9,0,.77-.64,1.33-1.72,1.33-.5,0-.98-.07-1.45-.23l.26-.88c.35.17.68.25,1.02.25.42,0,.64-.12.64-.33,0-.26-.21-.31-.53-.43-.6-.24-.92-.47-.92-1.03,0-.66.63-1.2,1.73-1.2.4,0,.83.08,1.28.22l-.28.8Z"/>
        <path class="cls-2" d="m22.07,1.52h.9l-.18.87h-.9l-.27,1.27c-.04.16-.05.26-.05.32,0,.26.11.38.4.38.1,0,.24-.02.42-.07l-.18.87c-.29.05-.53.08-.7.08-.76,0-1.19-.4-1.19-1.11,0-.13.01-.25.04-.36l.29-1.38h-.75l.18-.87h.75l.18-.87,1.33-.35-.26,1.22Z"/>
        <path class="cls-2" d="m24.2,3.67c.05.54.35.79.94.79.39,0,.82-.09,1.24-.28l-.14.9c-.43.13-.89.21-1.35.21-1.15,0-1.83-.67-1.83-1.71,0-.6.26-1.21.65-1.6.38-.38.94-.57,1.62-.57,1.01,0,1.57.57,1.57,1.58,0,.21-.03.44-.09.7h-2.62Zm-.1-3.51v-.16h1.33l.68.94v.09h-.84l-1.17-.87Zm1.76,2.64c0-.4-.25-.66-.64-.66s-.72.31-.86.83h1.48c0-.06.01-.11.01-.17Z"/>
        <path class="cls-2" d="m30.41,2.56c-.23-.06-.41-.1-.55-.1-.58,0-.84.36-1,1.13l-.34,1.58h-1.28l.75-3.66h1.16l-.13.67c.35-.51.71-.75,1.21-.75.16,0,.31.03.48.08l-.28,1.06Z"/>
        <path class="cls-2" d="m31.76,3.67c.05.54.35.79.94.79.39,0,.82-.09,1.24-.28l-.14.9c-.43.13-.89.21-1.35.21-1.15,0-1.83-.67-1.83-1.71,0-.6.26-1.21.65-1.6.38-.38.94-.57,1.62-.57,1.01,0,1.57.57,1.57,1.58,0,.21-.03.44-.09.7h-2.62Zm1.66-.87c0-.4-.25-.66-.64-.66s-.72.31-.86.83h1.48c0-.06.01-.11.01-.17Z"/>
        <path class="cls-2" d="m5.02,7.34l-1.04,4.92h-1.14l.13-.61c-.35.48-.81.72-1.33.72-.87,0-1.43-.62-1.43-1.62,0-1.33.8-2.23,1.94-2.23.53,0,.95.25,1.2.72l.4-1.89h1.26Zm-2.58,2.12c-.49,0-.92.52-.92,1.26,0,.43.26.71.63.71.51,0,.97-.53.97-1.22,0-.45-.28-.74-.68-.74Z"/>
        <path class="cls-2" d="m6.87,8.61l-.38,1.83c-.03.13-.04.25-.04.36,0,.35.17.55.48.55.46,0,.82-.4.99-1.2l.33-1.54h1.28l-.78,3.65h-1.14l.14-.62c-.41.47-.88.71-1.39.71-.75,0-1.19-.45-1.19-1.27,0-.24.04-.58.13-1.01l.31-1.45h1.28Z"/>
        <path class="cls-2" d="m16.55,8.51c-.34-.21-.72-.32-1.17-.32-1.2,0-1.89.72-1.89,1.9,0,.77.53,1.26,1.4,1.26.39,0,.78-.11,1.18-.31l-.13,1.14c-.47.12-.92.18-1.35.18-1.57,0-2.46-.88-2.46-2.31,0-.76.29-1.49.77-1.98.6-.61,1.31-.86,2.3-.86.53,0,1.09.1,1.67.29l-.33,1Z"/>
        <path class="cls-2" d="m20.86,10.23c0,1.25-.91,2.14-2.36,2.14-1.17,0-1.87-.65-1.87-1.67,0-1.31.88-2.19,2.34-2.19,1.19,0,1.89.65,1.89,1.72Zm-1.97-.88c-.51,0-.98.55-.98,1.33,0,.48.29.82.7.82.51,0,.96-.55.96-1.33,0-.51-.28-.82-.68-.82Z"/>
        <path class="cls-2" d="m25.07,12.26h-1.27l.38-1.83c.03-.13.04-.26.04-.36,0-.35-.18-.54-.46-.54-.5,0-.84.4-1.01,1.19l-.33,1.54h-1.28l.78-3.68h1.14l-.14.65c.41-.47.88-.71,1.39-.71.75,0,1.19.46,1.19,1.28,0,.23-.04.57-.13,1.01l-.31,1.45Z"/>
        <path class="cls-2" d="m29.09,9.53c-.36-.12-.67-.21-.96-.21-.37,0-.57.13-.57.33,0,.26.29.28.75.48.51.21.74.48.74.9,0,.77-.64,1.33-1.72,1.33-.5,0-.98-.07-1.45-.23l.26-.88c.35.17.68.25,1.02.25.42,0,.64-.12.64-.33,0-.26-.21-.31-.53-.43-.6-.24-.92-.47-.92-1.03,0-.66.63-1.2,1.73-1.2.4,0,.83.08,1.28.22l-.28.8Z"/>
        <path class="cls-2" d="m30.81,10.76c.05.54.35.79.94.79.39,0,.82-.09,1.24-.28l-.14.9c-.43.13-.89.21-1.35.21-1.15,0-1.83-.67-1.83-1.71,0-.6.26-1.21.65-1.6.38-.38.94-.57,1.62-.57,1.01,0,1.57.57,1.57,1.58,0,.21-.03.44-.09.7h-2.62Zm1.66-.87c0-.4-.25-.66-.64-.66s-.72.31-.86.83h1.48c0-.06.01-.11.01-.17Z"/>
        <path class="cls-2" d="m35.9,8.61l-.79,3.65h-1.24l.79-3.65h1.24Zm.26-1.27l-.13.65h-1.24l.12-.65h1.25Z"/>
        <path class="cls-2" d="m38.48,7.34l-1.06,4.92h-1.26l1.06-4.92h1.26Z"/>
        <path class="cls-2" d="m41.95,10.76c.05.54.35.79.94.79.39,0,.82-.09,1.24-.28l-.14.9c-.43.13-.89.21-1.35.21-1.15,0-1.83-.67-1.83-1.71,0-.6.26-1.21.65-1.6.38-.38.94-.57,1.62-.57,1.01,0,1.57.57,1.57,1.58,0,.21-.03.44-.09.7h-2.62Zm1.66-.87c0-.4-.25-.66-.64-.66s-.72.31-.86.83h1.48c0-.06.01-.11.01-.17Z"/>
        <path class="cls-2" d="m46.79,8.61l.39,1.07.81-1.07h1.45l-1.53,1.75.83,1.89h-1.35l-.43-1.15-.84,1.15h-1.52l1.61-1.94-.78-1.7h1.36Z"/>
        <path class="cls-2" d="m50.59,10.76c.05.54.35.79.94.79.39,0,.82-.09,1.24-.28l-.14.9c-.43.13-.89.21-1.35.21-1.15,0-1.83-.67-1.83-1.71,0-.6.26-1.21.65-1.6.38-.38.94-.57,1.62-.57,1.01,0,1.57.57,1.57,1.58,0,.21-.03.44-.09.7h-2.62Zm1.66-.87c0-.4-.25-.66-.64-.66s-.72.31-.86.83h1.48c0-.06.01-.11.01-.17Zm-.55-2.8h1.33v.16l-1.17.87h-.84v-.09l.68-.94Z"/>
        <path class="cls-2" d="m56.97,9.63c-.27-.13-.53-.19-.78-.19-.68,0-1.13.43-1.13,1.05,0,.55.36.89.94.89.23,0,.47-.06.72-.17l-.15.97c-.38.1-.72.15-1.04.15-1.12,0-1.81-.69-1.81-1.7,0-1.23.89-2.12,2.31-2.12.41,0,.82.08,1.22.24l-.29.88Z"/>
        <path class="cls-2" d="m59.1,8.61l-.38,1.83c-.03.13-.04.25-.04.36,0,.35.17.55.48.55.46,0,.82-.4.99-1.2l.33-1.54h1.28l-.78,3.65h-1.14l.14-.62c-.41.47-.88.71-1.39.71-.75,0-1.19-.45-1.19-1.27,0-.24.04-.58.13-1.01l.31-1.45h1.28Z"/>
        <path class="cls-2" d="m64.3,8.61h.9l-.18.87h-.9l-.27,1.27c-.04.16-.05.26-.05.32,0,.26.11.38.4.38.1,0,.24-.02.42-.07l-.19.87c-.29.05-.52.08-.7.08-.76,0-1.19-.4-1.19-1.11,0-.13.01-.25.04-.36l.29-1.38h-.75l.18-.87h.75l.18-.87,1.33-.35-.26,1.22Z"/>
        <path class="cls-2" d="m67.26,8.61l-.79,3.65h-1.24l.79-3.65h1.24Zm.26-1.27l-.13.65h-1.24l.12-.65h1.25Z"/>
        <path class="cls-2" d="m70.79,8.1c-.14-.06-.26-.09-.38-.09-.37,0-.5.21-.6.6h.92l-.18.89h-.93l-.58,2.76h-1.26l.59-2.76h-.76l.19-.89h.75c.12-.74.5-1.33,1.62-1.33.27,0,.54.07.81.16l-.19.65Z"/>
      </g>
    </g>
  </g>
</svg>