<?xml version="1.0" encoding="UTF-8"?>
<svg id="Calque_2" data-name="Calque 2" xmlns="http://www.w3.org/2000/svg" viewBox="0 0 105.49 30.31">
  <defs>
    <style>
      .cls-1, .cls-2 {
        fill-rule: evenodd;
      }

      .cls-1, .cls-2, .cls-3, .cls-4 {
        stroke-width: 0px;
      }

      .cls-1, .cls-3 {
        fill: #1d1d1b;
      }

      .cls-2 {
        fill: #fff;
      }

      .cls-4 {
        fill: #0062ae;
      }
    </style>
  </defs>
  <g id="Calque_1-2" data-name="Calque 1">
    <g>
      <g>
        <path class="cls-3" d="m42.42,25.53v-6.6h-.05c-.23.22-1.1.23-1.47.23h-.64v.05c.74.45.64,1.12.64,1.95v2.79c0,1.4-1.37,2.38-2.48,2.38-1.46,0-2.06-1.03-2.06-2.7v-4.7h-.05c-.23.22-1.11.23-1.47.23h-.63v.05c.74.45.64,1.12.64,1.95v2.78c0,2.55,1.11,3.76,3.08,3.76,1.17,0,2.38-.42,2.98-1.41v1.2h2.16v-.05c-.74-.42-.64-1.09-.64-1.92Z"/>
        <path class="cls-3" d="m45.76,22c.2-1.13,1.04-1.85,2.16-1.85,1.21,0,1.98.59,2.16,1.85h-4.32Zm6.08,1.05c.07-2.33-1.49-4.09-3.77-4.09-2.49,0-4.19,1.81-4.19,4.32s1.96,4.46,4.8,4.46c.79,0,1.59-.13,2.31-.45l.84-1.7h-.05c-.77.66-1.74.97-2.75.97-1.89,0-3.31-1.29-3.35-3.51h6.15Z"/>
        <path class="cls-3" d="m53.17,15.1c.4,0,1.22-.03,1.47-.27h.05v11.43c.45.13.92.22,1.38.22,1.83,0,2.88-1.28,2.88-3.06s-.81-3.1-2.49-3.1c-.53,0-.95.14-1.4.4l.9-1.54c.38-.14.78-.2,1.18-.2,1.9,0,3.51,1.65,3.51,4.12,0,2.83-1.92,4.66-4.94,4.66-1.13,0-2.22-.2-3.04-.33v-.06c.55-.25.5-.85.5-1.45v-8.31c0-.83.1-2-.62-2.45v-.05h.62Z"/>
        <path class="cls-3" d="m63.62,22c.2-1.13,1.04-1.85,2.16-1.85,1.21,0,1.98.59,2.16,1.85h-4.32Zm6.08,1.05c.07-2.33-1.49-4.09-3.77-4.09-2.5,0-4.19,1.81-4.19,4.32s1.96,4.46,4.81,4.46c.79,0,1.59-.13,2.31-.45l.84-1.7h-.05c-.77.66-1.74.97-2.75.97-1.89,0-3.31-1.29-3.35-3.51h6.15Z"/>
        <path class="cls-3" d="m77.19,21.04h-.05c-.49-.6-1.29-.89-2.05-.89-1.62,0-2.79,1.23-2.79,2.96,0,2.08,1.62,3.46,3.48,3.46.85,0,1.79-.36,2.45-.89h.05l-.87,1.71c-.71.29-1.47.36-2.21.36-2.58,0-4.59-1.82-4.59-4.17,0-3.12,2.25-4.61,4.78-4.61.6,0,1.22.07,1.81.21v1.86Z"/>
        <path class="cls-1" d="m49.75,17.47v-1.81c-1.1.49-2.12,1.41-2.8,2.31v.71c1.63-1.1,2.8-1.15,2.8-1.2Z"/>
        <path class="cls-3" d="m27.32,26.5c-2.53,0-4.29-2.85-4.29-5.28v-.27c.03-2.35,1.55-4.55,4.2-4.55,2.79,0,4.23,2.64,4.25,5.14v.26c0,2.67-1.66,4.7-4.17,4.7Zm8.67,2.77c-1.87.3-3.66-.28-5.57-2.47,1.84-.93,2.98-3.23,2.98-5.37,0-.02,0-.24,0-.27-.03-3.66-2.78-6.08-6.06-6.08s-6.19,2.52-6.21,6.21c0,.02,0,.23,0,.25,0,3.59,2.66,6.26,5.93,6.26.47,0,.92-.07,1.37-.18,2.14,2.01,4.05,2.86,5.69,2.66.78-.09,1.61-.4,2.1-1.05l-.23.04Z"/>
      </g>
      <g>
        <path class="cls-3" d="m3.09.24l.11,2.5c0,.16,0,.29,0,.39,0,.15,0,.35-.02.6.09-.31.23-.64.4-1.01L4.72.24h2.11l-1.06,4.91h-1.21l.62-2.96c.07-.35.16-.72.27-1.1h-.04l-1.91,4.06h-1.21l-.18-4.06h-.06c-.12.69-.19,1.08-.21,1.18l-.62,2.88H0L1.05.24h2.04Z"/>
        <path class="cls-3" d="m8.88,1.51l-.79,3.65h-1.24l.79-3.65h1.24Zm.26-1.27l-.13.65h-1.24l.12-.65h1.25Z"/>
        <path class="cls-3" d="m12.97,5.16h-1.27l.38-1.83c.03-.13.04-.26.04-.36,0-.35-.18-.54-.46-.54-.5,0-.84.4-1.01,1.19l-.33,1.54h-1.28l.78-3.68h1.14l-.14.65c.41-.47.88-.71,1.39-.71.75,0,1.19.46,1.19,1.28,0,.23-.04.57-.13,1.01l-.31,1.45Z"/>
        <path class="cls-3" d="m15.98,1.51l-.79,3.65h-1.24l.79-3.65h1.24Zm.26-1.27l-.13.65h-1.24l.12-.65h1.25Z"/>
        <path class="cls-3" d="m19.32,2.43c-.36-.12-.67-.21-.96-.21-.37,0-.57.13-.57.33,0,.26.29.28.75.47.51.21.74.48.74.9,0,.77-.64,1.33-1.72,1.33-.5,0-.98-.07-1.45-.23l.26-.88c.35.17.68.25,1.02.25.42,0,.64-.12.64-.33,0-.26-.21-.3-.53-.43-.6-.24-.91-.47-.91-1.03,0-.66.63-1.2,1.73-1.2.4,0,.83.08,1.28.22l-.28.8Z"/>
        <path class="cls-3" d="m22.04,1.52h.9l-.18.87h-.9l-.27,1.27c-.04.16-.05.26-.05.32,0,.26.11.38.4.38.1,0,.24-.02.42-.07l-.18.87c-.29.05-.52.08-.7.08-.76,0-1.19-.4-1.19-1.11,0-.13.01-.25.04-.36l.29-1.37h-.74l.18-.87h.74l.18-.86,1.33-.35-.26,1.22Z"/>
        <path class="cls-3" d="m24.17,3.66c.05.54.35.79.94.79.39,0,.82-.09,1.24-.28l-.14.9c-.43.13-.89.21-1.35.21-1.15,0-1.83-.67-1.83-1.71,0-.6.26-1.21.65-1.6.38-.38.94-.57,1.62-.57,1.01,0,1.57.57,1.57,1.57,0,.21-.03.44-.08.69h-2.61Zm-.1-3.51v-.16h1.32l.68.94v.08h-.84l-1.17-.86Zm1.76,2.64c0-.4-.25-.66-.64-.66s-.72.3-.86.83h1.48c0-.06.01-.11.01-.17Z"/>
        <path class="cls-3" d="m30.37,2.56c-.23-.06-.41-.1-.55-.1-.58,0-.84.36-1,1.13l-.34,1.57h-1.28l.74-3.66h1.15l-.13.67c.35-.51.71-.75,1.2-.75.16,0,.31.03.48.08l-.28,1.06Z"/>
        <path class="cls-3" d="m31.71,3.66c.05.54.35.79.94.79.39,0,.82-.09,1.24-.28l-.14.9c-.43.13-.89.21-1.35.21-1.15,0-1.83-.67-1.83-1.71,0-.6.26-1.21.65-1.6.38-.38.94-.57,1.62-.57,1.01,0,1.57.57,1.57,1.57,0,.21-.03.44-.08.69h-2.61Zm1.66-.87c0-.4-.25-.66-.64-.66s-.72.3-.86.83h1.48c0-.06.01-.11.01-.17Z"/>
        <path class="cls-3" d="m5.02,7.33l-1.03,4.92h-1.13l.13-.61c-.35.47-.81.72-1.33.72-.86,0-1.42-.62-1.42-1.62,0-1.32.8-2.22,1.93-2.22.53,0,.95.25,1.2.72l.4-1.89h1.25Zm-2.57,2.12c-.49,0-.91.52-.91,1.25,0,.43.26.71.63.71.51,0,.96-.52.96-1.22,0-.45-.28-.74-.68-.74Z"/>
        <path class="cls-3" d="m6.86,8.6l-.38,1.83c-.03.13-.04.25-.04.36,0,.35.17.55.48.55.46,0,.81-.4.98-1.2l.33-1.54h1.28l-.78,3.64h-1.14l.14-.62c-.41.47-.88.71-1.39.71-.75,0-1.19-.45-1.19-1.27,0-.24.04-.58.13-1.01l.3-1.45h1.28Z"/>
        <path class="cls-3" d="m16.53,8.5c-.34-.21-.72-.32-1.17-.32-1.2,0-1.88.72-1.88,1.9,0,.77.53,1.26,1.4,1.26.39,0,.78-.11,1.18-.3l-.13,1.13c-.47.12-.91.18-1.35.18-1.57,0-2.46-.88-2.46-2.31,0-.76.29-1.49.77-1.98.6-.61,1.31-.86,2.3-.86.53,0,1.08.1,1.67.29l-.33,1Z"/>
        <path class="cls-3" d="m20.83,10.22c0,1.25-.91,2.13-2.36,2.13-1.17,0-1.87-.64-1.87-1.66,0-1.3.88-2.18,2.34-2.18,1.18,0,1.89.65,1.89,1.71Zm-1.96-.88c-.51,0-.98.55-.98,1.33,0,.48.29.82.7.82.51,0,.96-.55.96-1.33,0-.51-.28-.82-.68-.82Z"/>
        <path class="cls-3" d="m25.04,12.24h-1.27l.38-1.83c.03-.13.04-.26.04-.36,0-.35-.18-.54-.46-.54-.5,0-.84.4-1.01,1.19l-.33,1.54h-1.28l.78-3.68h1.14l-.14.65c.41-.47.88-.71,1.39-.71.75,0,1.19.46,1.19,1.28,0,.23-.04.57-.13,1.01l-.31,1.45Z"/>
        <path class="cls-3" d="m29.05,9.52c-.36-.12-.67-.21-.96-.21-.37,0-.57.13-.57.33,0,.26.29.28.75.47.51.21.74.48.74.9,0,.77-.64,1.33-1.72,1.33-.5,0-.98-.07-1.45-.23l.26-.88c.35.17.68.25,1.02.25.42,0,.64-.12.64-.33,0-.26-.21-.3-.53-.43-.6-.24-.91-.47-.91-1.03,0-.66.63-1.2,1.73-1.2.4,0,.83.08,1.28.22l-.28.8Z"/>
        <path class="cls-3" d="m30.76,10.75c.05.54.35.79.94.79.39,0,.82-.09,1.24-.28l-.14.9c-.43.13-.89.21-1.35.21-1.15,0-1.83-.67-1.83-1.71,0-.6.26-1.21.65-1.6.38-.38.94-.57,1.62-.57,1.01,0,1.57.57,1.57,1.57,0,.21-.03.44-.08.69h-2.61Zm1.66-.87c0-.4-.25-.66-.64-.66s-.72.3-.86.83h1.48c0-.06.01-.11.01-.17Z"/>
        <path class="cls-3" d="m35.85,8.59l-.79,3.65h-1.24l.79-3.65h1.24Zm.26-1.27l-.13.65h-1.24l.12-.65h1.25Z"/>
        <path class="cls-3" d="m38.43,7.33l-1.06,4.91h-1.26l1.06-4.91h1.26Z"/>
        <path class="cls-3" d="m41.9,10.75c.05.54.35.79.94.79.39,0,.82-.09,1.24-.28l-.14.9c-.43.13-.89.21-1.35.21-1.15,0-1.83-.67-1.83-1.71,0-.6.26-1.21.65-1.6.38-.38.94-.57,1.62-.57,1.01,0,1.57.57,1.57,1.57,0,.21-.03.44-.08.69h-2.61Zm1.66-.87c0-.4-.25-.66-.64-.66s-.72.3-.86.83h1.48c0-.06.01-.11.01-.17Z"/>
        <path class="cls-3" d="m46.72,8.6l.39,1.07.81-1.07h1.45l-1.53,1.75.83,1.89h-1.35l-.43-1.15-.84,1.15h-1.52l1.61-1.94-.78-1.7h1.35Z"/>
        <path class="cls-3" d="m50.52,10.75c.05.54.35.79.94.79.39,0,.82-.09,1.24-.28l-.14.9c-.43.13-.89.21-1.35.21-1.15,0-1.83-.67-1.83-1.71,0-.6.26-1.21.65-1.6.38-.38.94-.57,1.62-.57,1.01,0,1.57.57,1.57,1.57,0,.21-.03.44-.08.69h-2.61Zm1.66-.87c0-.4-.25-.66-.64-.66s-.72.3-.86.83h1.48c0-.06.01-.11.01-.17Zm-.55-2.8h1.32v.16l-1.17.86h-.84v-.08l.68-.94Z"/>
        <path class="cls-3" d="m56.9,9.62c-.27-.13-.53-.19-.78-.19-.68,0-1.13.43-1.13,1.05,0,.55.36.89.94.89.23,0,.47-.06.72-.17l-.15.96c-.38.1-.72.15-1.04.15-1.12,0-1.81-.69-1.81-1.69,0-1.23.89-2.12,2.31-2.12.41,0,.82.08,1.22.24l-.29.88Z"/>
        <path class="cls-3" d="m59.02,8.6l-.38,1.83c-.03.13-.04.25-.04.36,0,.35.17.55.48.55.46,0,.81-.4.98-1.2l.33-1.54h1.28l-.78,3.64h-1.14l.14-.62c-.41.47-.88.71-1.39.71-.75,0-1.19-.45-1.19-1.27,0-.24.04-.58.13-1.01l.3-1.45h1.28Z"/>
        <path class="cls-3" d="m64.21,8.6h.9l-.18.87h-.9l-.27,1.27c-.04.16-.05.26-.05.32,0,.26.11.38.4.38.1,0,.24-.02.42-.07l-.18.87c-.29.05-.52.08-.7.08-.76,0-1.19-.4-1.19-1.11,0-.13.01-.25.04-.36l.29-1.37h-.74l.18-.87h.74l.18-.86,1.33-.35-.26,1.22Z"/>
        <path class="cls-3" d="m67.16,8.59l-.79,3.65h-1.24l.79-3.65h1.24Zm.26-1.27l-.13.65h-1.24l.12-.65h1.25Z"/>
        <path class="cls-3" d="m70.69,8.09c-.14-.06-.26-.09-.38-.09-.37,0-.5.21-.59.6h.92l-.18.89h-.93l-.58,2.76h-1.26l.59-2.76h-.76l.19-.89h.75c.12-.74.5-1.32,1.62-1.32.27,0,.54.07.81.16l-.19.65Z"/>
      </g>
      <g>
        <rect class="cls-4" x="82.23" y="12.1" width="10.15" height="6.22"/>
        <path class="cls-2" d="m87.31,12.42c-.07.14-.24.33-.52.68-.33.4-.27.94-.11,1.26.18.37.28.67.36.96.11.42.04.98.05.93h-.28c0-.69-.21-1.33-.73-1.62-.74-.41-1.46.3-1.23,1.03.12.38.34.51.4.51,0,0-.1-.42.21-.64.29-.2.64-.08.81.16.16.23.18.55.18.55h-.53v.39h1.06s-.03.55-.61.5c0,0,.07.43.61.21,0,0-.03.46.34.69h0c.37-.23.34-.69.34-.69.54.23.61-.21.61-.21-.58.05-.61-.5-.61-.5h1.06s0-.39,0-.39h-.53s.03-.32.18-.55c.17-.24.52-.37.81-.16.31.22.21.64.21.64.06,0,.28-.13.4-.51.23-.74-.5-1.44-1.23-1.03-.52.29-.73.93-.73,1.62h-.28c0,.05-.07-.51.05-.93.08-.29.18-.6.36-.96.15-.32.21-.86-.11-1.26-.28-.35-.44-.55-.52-.68Z"/>
        <rect class="cls-4" x="95.34" y="12.1" width="10.15" height="6.22"/>
        <path class="cls-2" d="m100.41,12.42c-.08.14-.24.33-.52.68-.32.4-.27.94-.11,1.26.18.37.28.67.36.96.11.42.04.98.05.93h-.28c0-.69-.21-1.33-.73-1.62-.74-.41-1.46.3-1.23,1.03.12.38.34.51.4.51,0,0-.1-.42.21-.64.29-.2.64-.08.81.16.16.23.18.55.18.55h-.53v.39h1.06s-.03.55-.61.5c0,0,.07.43.61.21,0,0-.03.46.34.69h0c.37-.23.34-.69.34-.69.54.23.61-.21.61-.21-.58.05-.61-.5-.61-.5h1.06s0-.39,0-.39h-.53s.03-.32.18-.55c.17-.24.52-.37.81-.16.3.22.21.64.21.64.06,0,.28-.13.4-.51.23-.74-.5-1.44-1.23-1.03-.52.29-.73.93-.73,1.62h-.28c0,.05-.07-.51.04-.93.08-.29.18-.6.36-.96.15-.32.21-.86-.11-1.26-.28-.35-.45-.55-.52-.68Z"/>
      </g>
      <g>
        <rect class="cls-4" x="82.23" y="21.28" width="10.15" height="6.22"/>
        <path class="cls-2" d="m87.31,21.61c-.07.14-.24.33-.52.68-.33.4-.27.94-.11,1.26.18.37.28.67.36.96.11.42.04.98.05.93h-.28c0-.69-.21-1.33-.73-1.62-.74-.41-1.46.3-1.23,1.03.12.38.34.52.4.52,0,0-.1-.42.21-.64.29-.2.64-.08.81.16.16.23.18.55.18.55h-.53v.39h1.06s-.03.55-.61.5c0,0,.07.43.61.21,0,0-.03.46.34.68h0c.37-.23.34-.68.34-.68.54.23.61-.21.61-.21-.58.05-.61-.5-.61-.5h1.06v-.39h-.53s.03-.32.18-.55c.17-.24.52-.36.81-.16.31.22.21.64.21.64.06,0,.28-.13.4-.52.23-.73-.5-1.44-1.23-1.03-.52.29-.73.93-.73,1.62h-.28c0,.05-.07-.51.05-.93.08-.29.18-.6.36-.96.15-.32.21-.86-.11-1.26-.28-.35-.44-.55-.52-.68Z"/>
        <rect class="cls-4" x="95.34" y="21.28" width="10.15" height="6.22"/>
        <path class="cls-2" d="m100.41,21.61c-.08.14-.24.33-.52.68-.32.4-.27.94-.11,1.26.18.37.28.67.36.96.11.42.04.98.05.93h-.28c0-.69-.21-1.33-.73-1.62-.74-.41-1.46.3-1.23,1.03.12.38.34.52.4.52,0,0-.1-.42.21-.64.29-.2.64-.08.81.16.16.23.18.55.18.55h-.53v.39h1.06s-.03.55-.61.5c0,0,.07.43.61.21,0,0-.03.46.34.68h0c.37-.23.34-.68.34-.68.54.23.61-.21.61-.21-.58.05-.61-.5-.61-.5h1.06v-.39h-.53s.03-.32.18-.55c.17-.24.52-.36.81-.16.3.22.21.64.21.64.06,0,.28-.13.4-.52.23-.73-.5-1.44-1.23-1.03-.52.29-.73.93-.73,1.62h-.28c0,.05-.07-.51.04-.93.08-.29.18-.6.36-.96.15-.32.21-.86-.11-1.26-.28-.35-.45-.55-.52-.68Z"/>
      </g>
    </g>
  </g>
</svg>