<svg width="196" height="71" viewBox="0 0 196 71" fill="none" xmlns="http://www.w3.org/2000/svg">
<path d="M158.567 30.911C157.301 31.311 157.288 30.178 157.288 30.178C158.411 30.376 158.522 29.429 158.522 29.429H156.278V28.37H157.342C157.342 28.37 157.161 26.958 156.117 26.958C155.152 26.958 155.02 28.026 155.196 28.469C154.713 28.551 154.005 27.716 154.005 26.733C154.005 25.481 154.999 24.812 155.876 24.812C157.292 24.812 158.352 26.447 158.352 28.371H158.786C158.786 28.371 158.879 27.447 158.685 26.6C158.381 25.269 157.72 24.483 157.705 23.58C157.68 22.011 158.625 21.76 159.381 20.391C160.136 21.76 161.081 22.011 161.055 23.58C161.041 24.482 160.379 25.269 160.076 26.6C159.883 27.448 159.974 28.371 159.974 28.371H160.408C160.408 26.447 161.468 24.812 162.885 24.812C163.762 24.812 164.754 25.481 164.754 26.733C164.754 27.716 164.047 28.551 163.564 28.469C163.74 28.027 163.608 26.958 162.643 26.958C161.599 26.958 161.418 28.37 161.418 28.37H162.482V29.429H160.237C160.237 29.429 160.348 30.376 161.471 30.178C161.471 30.178 161.458 31.312 160.191 30.911C160.191 30.911 160.141 31.923 159.38 32.289C158.618 31.923 158.567 30.911 158.567 30.911ZM169.457 20.169H149.303V32.521H169.457V20.169Z" fill="white"/>
<path d="M184.604 30.911C183.336 31.311 183.325 30.178 183.325 30.178C184.448 30.376 184.559 29.429 184.559 29.429H182.315V28.37H183.378C183.378 28.37 183.198 26.958 182.153 26.958C181.188 26.958 181.056 28.026 181.233 28.469C180.75 28.551 180.042 27.716 180.042 26.733C180.042 25.481 181.036 24.812 181.912 24.812C183.329 24.812 184.388 26.447 184.388 28.371H184.822C184.822 28.371 184.915 27.447 184.721 26.6C184.417 25.269 183.756 24.483 183.742 23.58C183.717 22.011 184.662 21.76 185.416 20.391C186.172 21.76 187.117 22.011 187.092 23.58C187.076 24.482 186.416 25.269 186.112 26.6C185.919 27.448 186.012 28.371 186.012 28.371H186.445C186.445 26.447 187.504 24.812 188.922 24.812C189.798 24.812 190.792 25.481 190.792 26.733C190.792 27.716 190.084 28.551 189.601 28.469C189.777 28.027 189.646 26.958 188.681 26.958C187.636 26.958 187.456 28.37 187.456 28.37H188.519V29.429H186.275C186.275 29.429 186.386 30.376 187.509 30.178C187.509 30.178 187.496 31.312 186.23 30.911C186.23 30.911 186.179 31.923 185.417 32.289C184.655 31.923 184.604 30.911 184.604 30.911ZM195.493 20.169H175.339V32.521H195.493V20.169Z" fill="white"/>
<path d="M158.567 49.169C157.301 49.569 157.288 48.435 157.288 48.435C158.411 48.634 158.522 47.687 158.522 47.687H156.278V46.628H157.342C157.342 46.628 157.161 45.216 156.117 45.216C155.152 45.216 155.02 46.284 155.196 46.727C154.713 46.808 154.005 45.973 154.005 44.99C154.005 43.739 154.999 43.07 155.876 43.07C157.292 43.07 158.352 44.705 158.352 46.629H158.786C158.786 46.629 158.879 45.705 158.685 44.858C158.381 43.527 157.72 42.741 157.705 41.838C157.68 40.268 158.625 40.016 159.381 38.649C160.136 40.016 161.081 40.268 161.055 41.838C161.041 42.74 160.379 43.526 160.076 44.858C159.883 45.706 159.974 46.629 159.974 46.629H160.408C160.408 44.705 161.468 43.07 162.885 43.07C163.762 43.07 164.754 43.739 164.754 44.99C164.754 45.973 164.047 46.808 163.564 46.727C163.74 46.285 163.608 45.216 162.643 45.216C161.599 45.216 161.418 46.628 161.418 46.628H162.482V47.687H160.237C160.237 47.687 160.348 48.634 161.471 48.435C161.471 48.435 161.458 49.57 160.191 49.169C160.191 49.169 160.141 50.18 159.38 50.546C158.618 50.18 158.567 49.169 158.567 49.169ZM169.457 38.427H149.303V50.779H169.457V38.427Z" fill="white"/>
<path d="M184.604 49.169C183.336 49.569 183.325 48.435 183.325 48.435C184.448 48.634 184.559 47.687 184.559 47.687H182.315V46.628H183.378C183.378 46.628 183.198 45.216 182.153 45.216C181.188 45.216 181.056 46.284 181.233 46.727C180.75 46.808 180.042 45.973 180.042 44.99C180.042 43.739 181.036 43.07 181.912 43.07C183.329 43.07 184.388 44.705 184.388 46.629H184.822C184.822 46.629 184.915 45.705 184.721 44.858C184.417 43.527 183.756 42.741 183.742 41.838C183.717 40.268 184.662 40.016 185.416 38.649C186.172 40.016 187.117 40.268 187.092 41.838C187.076 42.74 186.416 43.526 186.112 44.858C185.919 45.706 186.012 46.629 186.012 46.629H186.445C186.445 44.705 187.504 43.07 188.922 43.07C189.798 43.07 190.792 43.739 190.792 44.99C190.792 45.973 190.084 46.808 189.601 46.727C189.777 46.285 189.646 45.216 188.681 45.216C187.636 45.216 187.456 46.628 187.456 46.628H188.519V47.687H186.275C186.275 47.687 186.386 48.634 187.509 48.435C187.509 48.435 187.496 49.57 186.23 49.169C186.23 49.169 186.179 50.18 185.417 50.546C184.655 50.18 184.604 49.169 184.604 49.169ZM195.493 38.427H175.339V50.779H195.493V38.427Z" fill="white"/>
<path d="M52.923 45.929L52.922 29.578H52.798C52.218 30.113 50.069 30.156 49.158 30.156H47.578V30.289C49.403 31.41 49.155 33.066 49.155 35.125L49.157 42.046C49.157 45.504 45.759 47.932 43.02 47.932C39.412 47.932 37.914 45.37 37.914 41.236V29.579H37.79C37.21 30.113 35.047 30.157 34.136 30.157H32.569V30.29C34.394 31.411 34.146 33.067 34.146 35.127V42.023C34.146 48.336 36.884 51.335 41.776 51.335C44.681 51.335 47.663 50.304 49.157 47.843V50.826H54.5V50.691C52.675 49.658 52.923 47.994 52.923 45.929Z" fill="white"/>
<path d="M61.2089 37.185C61.7079 34.377 63.7819 32.594 66.5639 32.594C69.5519 32.594 71.4599 34.065 71.9159 37.185H61.2089ZM76.2749 39.792C76.4399 34.021 72.5799 29.667 66.9369 29.667C60.7529 29.667 56.5649 34.154 56.5649 40.377C56.5649 46.647 61.4169 51.423 68.4729 51.423C70.4239 51.423 72.4149 51.113 74.2009 50.314L76.2759 46.105H76.1499C74.2399 47.728 71.8349 48.497 69.3439 48.497C64.6549 48.497 61.1279 45.295 61.0449 39.793H76.2749V39.792Z" fill="white"/>
<path d="M79.5669 20.081C80.5599 20.081 82.5889 20.019 83.2009 19.415H83.3239V47.731C84.4379 48.044 85.5929 48.266 86.7469 48.266C91.2819 48.266 93.8789 45.095 93.8789 40.674C93.8789 36.34 91.8589 32.991 87.6959 32.991C86.3769 32.991 85.3459 33.348 84.2319 33.974L86.4589 30.162C87.4059 29.804 88.3959 29.668 89.3859 29.668C94.0879 29.668 98.0859 33.75 98.0859 39.87C98.0859 46.882 93.3429 51.416 85.8399 51.416C83.0369 51.416 80.344 50.922 78.313 50.607V50.47C79.682 49.841 79.5579 48.356 79.5579 46.882V26.298C79.5579 24.231 79.8059 21.338 78.0229 20.214V20.081H79.5669Z" fill="white"/>
<path d="M105.453 37.185C105.953 34.377 108.026 32.594 110.808 32.594C113.795 32.594 115.704 34.065 116.161 37.185H105.453ZM120.517 39.792C120.685 34.021 116.825 29.667 111.181 29.667C104.998 29.667 100.808 34.154 100.808 40.377C100.808 46.647 105.662 51.423 112.716 51.423C114.667 51.423 116.66 51.113 118.443 50.314L120.518 46.105H120.395C118.486 47.728 116.078 48.497 113.588 48.497C108.899 48.497 105.372 45.295 105.288 39.793H120.517V39.792Z" fill="white"/>
<path d="M139.078 34.797H138.955C137.751 33.313 135.758 32.595 133.89 32.595C129.865 32.595 126.962 35.651 126.962 39.918C126.962 45.083 130.986 48.497 135.592 48.497C137.708 48.497 140.033 47.598 141.651 46.296H141.776L139.617 50.536C137.874 51.247 135.966 51.424 134.138 51.424C127.749 51.424 122.754 46.925 122.754 41.086C122.754 33.359 128.33 29.668 134.595 29.668C136.09 29.668 137.625 29.844 139.077 30.199V34.797H139.078Z" fill="white"/>
<path fill-rule="evenodd" clip-rule="evenodd" d="M71.097 25.961C71.097 23.873 71.097 21.468 71.097 21.468C68.377 22.687 65.853 24.967 64.166 27.185V28.935C68.203 26.214 71.097 26.088 71.097 25.961Z" fill="white"/>
<path d="M15.489 48.334C9.22298 48.334 4.86398 41.264 4.86398 35.258C4.86398 35.197 4.86398 34.642 4.86498 34.582C4.94298 28.763 8.70998 23.306 15.282 23.306C22.198 23.306 25.765 29.849 25.823 36.049C25.823 36.099 25.823 36.645 25.823 36.695C25.824 43.301 21.715 48.334 15.489 48.334ZM36.969 55.206C32.342 55.963 27.894 54.505 23.167 49.097C27.733 46.805 30.556 41.099 30.556 35.796C30.556 35.742 30.555 35.192 30.555 35.137C30.473 26.063 23.657 20.072 15.53 20.072C7.38798 20.072 0.192981 26.308 0.131981 35.453C0.131981 35.494 0.130981 36.026 0.130981 36.065C0.130981 44.962 6.73098 51.568 14.825 51.568C15.988 51.568 17.107 51.388 18.228 51.118C23.529 56.083 28.253 58.197 32.336 57.705C34.273 57.472 36.318 56.703 37.547 55.106L36.969 55.206Z" fill="white"/>
</svg>
