<svg width="140" height="28" viewBox="0 0 140 28" fill="none" xmlns="http://www.w3.org/2000/svg">
<path fill-rule="evenodd" clip-rule="evenodd" d="M59.5839 0C59.1479 0.429386 57.7052 0.4731 56.9988 0.4731L55.9007 0.473107V0.567724C57.0347 1.28116 57.0137 2.99908 56.9965 4.40426V4.40435V4.40444C56.9944 4.57092 56.9925 4.73301 56.9925 4.88852V19.5089C56.9925 19.5891 56.993 19.6695 56.9935 19.7496C56.9997 20.7142 57.0057 21.6451 56.1067 22.0576V22.1543C56.2906 22.1828 56.4821 22.2133 56.6804 22.2449C58.0404 22.4614 59.7202 22.729 61.4605 22.729C66.7981 22.729 70.1716 19.5089 70.1716 14.5278C70.1716 10.1816 67.328 7.28218 63.9832 7.28218C63.2792 7.28218 62.5751 7.3783 61.9013 7.63281L60.3171 10.3406C61.1096 9.89622 61.8428 9.64259 62.7814 9.64259C65.7429 9.64259 67.1795 12.0213 67.1795 15.0997C67.1795 18.2393 65.3317 20.4916 62.1064 20.4916C61.2853 20.4916 60.464 20.3341 59.6718 20.1119V0H59.5839ZM26.7014 25.4186C23.4098 25.956 20.2466 24.9207 16.8843 21.0799C20.1318 19.4518 22.1402 15.399 22.1402 11.6337L22.1396 11.1658C22.0811 4.72139 17.233 0.465959 11.4529 0.465959C5.66177 0.465959 0.544082 4.89474 0.500901 11.3903L0.5 11.8253C0.5 18.144 5.19459 22.8353 10.9513 22.8353C11.778 22.8353 12.5744 22.7069 13.3714 22.5159C17.1422 26.0422 20.5024 27.5437 23.4062 27.1946C24.7835 27.0291 26.2387 26.4827 27.1128 25.3488L26.7014 25.4186ZM11.4227 20.5378C6.96564 20.5378 3.8654 15.5171 3.8654 11.2518C3.8654 11.2084 3.8654 10.8141 3.8663 10.7719C3.92147 6.63918 6.60071 2.7631 11.2758 2.7631C16.195 2.7631 18.7324 7.41045 18.7735 11.8132V12.2719C18.7735 16.9641 15.8511 20.5378 11.4227 20.5378ZM38.05 18.8313L38.0497 7.22035H37.9613C37.5483 7.59995 36.0194 7.63079 35.3716 7.63079H34.2475V7.7248C35.4038 8.4343 35.3902 9.44466 35.3733 10.6905V10.6909V10.6913V10.6916V10.692V10.6924C35.3713 10.8448 35.3692 11.0008 35.3692 11.1601L35.3701 16.0747C35.3701 18.5298 32.9531 20.2545 31.004 20.2545C28.4371 20.2545 27.3716 18.4349 27.3716 15.4992V7.22035H27.2834C26.8704 7.59995 25.3319 7.63109 24.6838 7.63109H23.5693V7.7254C24.7259 8.43465 24.7123 9.44526 24.6955 10.6908L24.6955 10.6912C24.6934 10.844 24.6913 11.0004 24.6913 11.1601V16.057C24.6913 20.5401 26.6392 22.6699 30.1193 22.6699C32.1857 22.6699 34.3072 21.9382 35.3701 20.1902V22.3088H39.1717V22.2133C38.0157 21.5597 38.0292 20.5508 38.0459 19.3013V19.301V19.3008V19.3005V19.3002V19.2999C38.0479 19.1472 38.05 18.9909 38.05 18.8313ZM48.0169 7.28127C52.0305 7.28127 54.776 10.3732 54.6588 14.4714L43.8252 14.4714C43.8846 18.3793 46.3935 20.6535 49.7285 20.6535C51.5001 20.6535 53.2111 20.1086 54.5694 18.9553H54.6588L53.1829 21.9446C51.913 22.5122 50.4965 22.7323 49.109 22.7323C44.0903 22.7323 40.6392 19.341 40.6392 14.8876C40.6392 10.4678 43.6186 7.28127 48.0169 7.28127ZM47.7513 9.35997C45.7728 9.35997 44.2975 10.6263 43.9425 12.6201H51.5583C51.2342 10.4042 49.8764 9.35997 47.7513 9.35997ZM50.978 4.64754V1.45554C49.041 2.32189 47.2436 3.9414 46.0418 5.51688V6.76055C48.3215 5.22789 50.0893 4.85415 50.7238 4.72C50.8896 4.68496 50.978 4.66626 50.978 4.64754ZM86.1274 14.4714C86.2468 10.3732 83.5012 7.28127 79.4867 7.28127C75.0887 7.28127 72.1084 10.4678 72.1084 14.8876C72.1084 19.341 75.5613 22.7323 80.5785 22.7323C81.9665 22.7323 83.3843 22.5122 84.6518 21.9446L86.1274 18.9553H86.0401C84.6821 20.1086 82.9693 20.6535 81.1986 20.6535C77.863 20.6535 75.3543 18.3793 75.295 14.4714L86.1274 14.4714ZM75.4129 12.6201C75.7682 10.6263 77.2426 9.35999 79.2217 9.35999C81.3465 9.35999 82.7042 10.4042 83.029 12.6201H75.4129ZM99.2395 10.926H99.3271V7.66136C98.2947 7.40869 97.2023 7.28386 96.139 7.28386C91.6832 7.28386 87.7167 9.90513 87.7167 15.3917C87.7167 19.5385 91.2697 22.7328 95.8137 22.7328C97.1139 22.7328 98.4713 22.6073 99.7109 22.1026L101.246 19.0912H101.157C100.006 20.016 98.3529 20.6546 96.8476 20.6546C93.5717 20.6546 90.7093 18.2297 90.7093 14.5621C90.7093 11.5322 92.774 9.36207 95.6371 9.36207C96.9654 9.36207 98.3832 9.87219 99.2395 10.926Z" fill="black"/>
<path fill-rule="evenodd" clip-rule="evenodd" d="M125.113 0.476959H139.5V9.28063H125.113V0.476959ZM130.813 7.6108C130.813 7.6108 130.822 8.41918 131.726 8.13326C131.726 8.13326 131.763 8.85482 132.306 9.1159C132.848 8.85482 132.885 8.13326 132.885 8.13326C133.789 8.41919 133.799 7.6108 133.799 7.6108C132.996 7.75241 132.917 7.07726 132.917 7.07726H134.519V6.32276H133.76C133.76 6.32276 133.89 5.31586 134.634 5.31586C135.323 5.31586 135.418 6.07724 135.292 6.39282C135.637 6.4512 136.142 5.85598 136.142 5.15538C136.142 4.26316 135.433 3.7865 134.807 3.7865C133.796 3.7865 133.039 4.95119 133.039 6.32276H132.73C132.73 6.32276 132.665 5.66377 132.802 5.05957C132.902 4.62299 133.056 4.26861 133.194 3.95058L133.194 3.95056C133.355 3.57764 133.495 3.25469 133.501 2.90776C133.514 2.18367 133.234 1.85312 132.89 1.44533C132.702 1.22332 132.496 0.978426 132.306 0.63468C132.116 0.978034 131.909 1.22276 131.722 1.44457C131.377 1.85271 131.098 2.18323 131.109 2.90776C131.115 3.25503 131.256 3.57828 131.418 3.95166C131.556 4.26942 131.71 4.62348 131.81 5.05957C131.948 5.66377 131.881 6.32276 131.881 6.32276H131.573C131.573 4.95119 130.816 3.7865 129.805 3.7865C129.179 3.7865 128.469 4.26315 128.469 5.15538C128.469 5.85599 128.975 6.4512 129.32 6.39282C129.195 6.07724 129.289 5.31586 129.977 5.31586C130.722 5.31586 130.85 6.32276 130.85 6.32276H130.092V7.07726H131.694C131.694 7.07726 131.615 7.75241 130.813 7.6108ZM106.527 0.477076H120.914V9.28075H106.527V0.477076ZM112.228 7.61081C112.228 7.61081 112.236 8.4192 113.141 8.13327H113.141C113.141 8.13327 113.176 8.85483 113.719 9.11591C114.264 8.85483 114.3 8.13327 114.3 8.13327C115.203 8.4192 115.213 7.61081 115.213 7.61081C114.411 7.75243 114.332 7.07727 114.332 7.07727H115.934V6.32277H115.174C115.174 6.32277 115.303 5.31587 116.048 5.31587C116.737 5.31587 116.832 6.07726 116.706 6.39283C117.051 6.45121 117.555 5.85599 117.555 5.15539C117.555 4.26317 116.847 3.78652 116.221 3.78652C115.21 3.78652 114.453 4.9512 114.453 6.32277H114.145C114.145 6.32277 114.078 5.66379 114.216 5.05959C114.316 4.62356 114.469 4.26953 114.607 3.95181C114.769 3.57837 114.91 3.25509 114.916 2.90777C114.928 2.18306 114.648 1.85256 114.303 1.44428C114.116 1.22256 113.909 0.977894 113.719 0.634694C113.53 0.978198 113.323 1.22299 113.136 1.44487C112.791 1.85288 112.512 2.18341 112.525 2.90777C112.53 3.25504 112.67 3.57828 112.832 3.95165L112.832 3.95165C112.97 4.26941 113.124 4.62349 113.223 5.05959C113.362 5.66378 113.296 6.32277 113.296 6.32277H112.986C112.986 4.9512 112.229 3.78652 111.218 3.78652C110.592 3.78652 109.884 4.26317 109.884 5.15539C109.884 5.856 110.389 6.45121 110.733 6.39283C110.608 6.07726 110.703 5.31587 111.391 5.31587C112.136 5.31587 112.266 6.32277 112.266 6.32277H111.506V7.07727H113.107C113.107 7.07727 113.029 7.75243 112.228 7.61081ZM120.914 13.4906H106.527V22.294H120.914V13.4906ZM113.141 21.1466C112.236 21.432 112.228 20.6239 112.228 20.6239C113.029 20.7658 113.107 20.09 113.107 20.09H111.506V19.3358H112.266C112.266 19.3358 112.136 18.3293 111.391 18.3293C110.703 18.3293 110.608 19.0909 110.733 19.4062C110.389 19.4634 109.884 18.8691 109.884 18.1682C109.884 17.2765 110.593 16.7993 111.218 16.7993C112.229 16.7993 112.986 17.9643 112.986 19.3358H113.296C113.296 19.3358 113.362 18.6772 113.223 18.0733C113.124 17.6372 112.97 17.2831 112.832 16.9652C112.67 16.5918 112.53 16.2684 112.525 15.9211C112.512 15.1956 112.792 14.8647 113.136 14.4564C113.324 14.2347 113.53 13.9901 113.719 13.6472C113.909 13.9898 114.116 14.2343 114.303 14.4558C114.648 14.8644 114.928 15.1953 114.916 15.9211C114.91 16.2685 114.769 16.5919 114.607 16.9654C114.469 17.2832 114.316 17.6373 114.216 18.0733C114.078 18.6772 114.145 19.3358 114.145 19.3358H114.453C114.453 17.9643 115.21 16.7993 116.221 16.7993C116.847 16.7993 117.555 17.2765 117.555 18.1682C117.555 18.8691 117.051 19.4634 116.706 19.4062C116.832 19.0909 116.737 18.3293 116.048 18.3293C115.303 18.3293 115.174 19.3358 115.174 19.3358H115.934V20.09H114.332C114.332 20.09 114.411 20.7658 115.213 20.6239C115.213 20.6239 115.203 21.432 114.3 21.1466C114.3 21.1466 114.264 21.8673 113.719 22.1281C113.178 21.8683 113.141 21.1519 113.141 21.1467L113.141 21.1466ZM139.5 13.4906H125.113V22.294H139.5V13.4906ZM131.726 21.1465C130.822 21.4318 130.813 20.6237 130.813 20.6237C131.614 20.7656 131.694 20.0899 131.694 20.0899H130.092V19.3357H130.85C130.85 19.3357 130.722 18.3291 129.976 18.3291C129.288 18.3291 129.194 19.0908 129.319 19.406C128.975 19.4632 128.469 18.8689 128.469 18.168C128.469 17.2764 129.179 16.7991 129.805 16.7991C130.815 16.7991 131.573 17.9641 131.573 19.3357H131.881C131.881 19.3357 131.948 18.677 131.809 18.0731C131.709 17.637 131.556 17.2829 131.418 16.9651L131.418 16.9651C131.256 16.5916 131.115 16.2683 131.109 15.921C131.098 15.1953 131.377 14.8644 131.722 14.456C131.909 14.2343 132.116 13.9898 132.306 13.647C132.495 13.9902 132.702 14.2349 132.889 14.4567L132.889 14.4567C133.234 14.8648 133.513 15.1958 133.501 15.921C133.495 16.2679 133.355 16.591 133.193 16.964C133.055 17.2821 132.902 17.6365 132.802 18.0731C132.665 18.677 132.73 19.3357 132.73 19.3357H133.039C133.039 17.9641 133.796 16.7991 134.806 16.7991C135.433 16.7991 136.141 17.2764 136.141 18.168C136.141 18.8689 135.636 19.4632 135.292 19.406C135.418 19.0908 135.323 18.3291 134.634 18.3291C133.89 18.3291 133.76 19.3357 133.76 19.3357H134.519V20.0899H132.916C132.916 20.0899 132.996 20.7656 133.799 20.6237C133.799 20.6237 133.789 21.4318 132.885 21.1465C132.885 21.1465 132.848 21.8672 132.306 22.1279C131.763 21.8675 131.726 21.1486 131.726 21.1465Z" fill="#095797"/>
</svg>
