<svg xmlns="http://www.w3.org/2000/svg" width="24" height="21" viewBox="0 0 24 21"><defs><style>.a{fill:#AD781C;}</style></defs><g transform="translate(-540.001 -2507)"><path class="a" d="M563.369,2528H540.634a.633.633,0,0,1-.546-.306.6.6,0,0,1-.005-.615l11.368-19.764a.638.638,0,0,1,1.1,0l11.368,19.764a.606.606,0,0,1,0,.615A.632.632,0,0,1,563.369,2528Zm-21.656-1.235h20.574L552,2508.878Z"/><path class="a" d="M549.64,2520.654a.638.638,0,0,1-.638-.638v-6.377a.638.638,0,0,1,1.275,0v6.377A.638.638,0,0,1,549.64,2520.654Z" transform="translate(2.362 1.28)"/><path class="a" d="M549.64,2522.552a.638.638,0,0,1-.638-.637v-1.276a.638.638,0,0,1,1.275,0v1.276A.638.638,0,0,1,549.64,2522.552Z" transform="translate(2.362 2.897)"/></g></svg>