<svg xmlns="http://www.w3.org/2000/svg" viewBox="0 0 20.5 20.5"><defs><style>.cls-1{fill:#fff;stroke:#fff;stroke-miterlimit:10;stroke-width:1.5px;}</style></defs><title>Fichier 3</title><g id="Calque_2" data-name="Calque 2"><g id="Layer_1" data-name="Layer 1"><path class="cls-1" d="M11,10.25,19.6,1.6a.48.48,0,0,0,0-.7.48.48,0,0,0-.7,0L10.25,9.54,1.6.9A.48.48,0,0,0,.9.9a.48.48,0,0,0,0,.7l8.64,8.65L.9,18.9a.48.48,0,0,0,0,.7.48.48,0,0,0,.7,0L10.25,11,18.9,19.6a.48.48,0,0,0,.7,0,.48.48,0,0,0,0-.7L11,10.25Z"/></g></g></svg>