<svg xmlns="http://www.w3.org/2000/svg" width="24" height="24" viewBox="0 0 24 24"><defs><style>.a{fill:#cb381f;}</style></defs><g transform="translate(-180.002 -2546.001)"><path class="a" d="M196.476,2561.675l-4.969-4.762,4.969-4.763a.7.7,0,0,0,.051-.928.579.579,0,0,0-.86-.055l-5.076,4.867-5.076-4.867a.579.579,0,0,0-.86.055.693.693,0,0,0,.051.928l4.969,4.763-4.969,4.762a.7.7,0,0,0-.051.928.578.578,0,0,0,.86.055l5.076-4.867,5.076,4.867a.579.579,0,0,0,.4.166.59.59,0,0,0,.455-.221A.694.694,0,0,0,196.476,2561.675Z" transform="translate(1.411 1.089)"/><path class="a" d="M192,2570a12,12,0,1,1,8.486-3.514A11.926,11.926,0,0,1,192,2570Zm0-22.737A10.737,10.737,0,1,0,202.739,2558,10.749,10.749,0,0,0,192,2547.264Z" transform="translate(0 0)"/></g></svg>