<svg xmlns="http://www.w3.org/2000/svg" viewBox="0 0 19.25 19.25"><defs><style>.cls-1{fill:#fff;stroke:#fff;stroke-miterlimit:10;stroke-width:0.25px;}</style></defs><title>i_0_25</title><g id="Calque_2" data-name="Calque 2"><g id="Layer_1" data-name="Layer 1"><path class="cls-1" d="M2.91,16.34a9.5,9.5,0,0,0,13.43,0,9.48,9.48,0,0,0,0-13.43,9.5,9.5,0,0,0-13.43,0,9.5,9.5,0,0,0,0,13.43ZM9.63,1.12a8.5,8.5,0,1,1-8.5,8.5A8.52,8.52,0,0,1,9.63,1.12Z"/><path class="cls-1" d="M9.63,4.12h0a.51.51,0,0,1,.5.5v1a.5.5,0,0,1-.5.5h0a.5.5,0,0,1-.5-.5v-1A.5.5,0,0,1,9.63,4.12Z"/><path class="cls-1" d="M9.63,7.12a.51.51,0,0,1,.5.5v7a.5.5,0,0,1-.5.5.5.5,0,0,1-.5-.5v-7A.5.5,0,0,1,9.63,7.12Z"/></g></g></svg>