<svg id="Groupe_392" data-name="Groupe 392" xmlns="http://www.w3.org/2000/svg" width="32" height="27.254" viewBox="0 0 32 27.254">
  <g id="Groupe_391" data-name="Groupe 391">
    <path id="Tracé_646" data-name="Tracé 646" d="M23.827,0H1.9A1.933,1.933,0,0,0,0,1.965V25.287a1.934,1.934,0,0,0,1.9,1.967H23.827a1.938,1.938,0,0,0,1.9-1.967V1.965A1.936,1.936,0,0,0,23.827,0ZM7.633,23.223H3.812V10.217h3.82ZM5.724,8.44A2.281,2.281,0,0,1,3.509,6.1,2.28,2.28,0,0,1,5.724,3.752,2.281,2.281,0,0,1,7.935,6.1,2.281,2.281,0,0,1,5.724,8.44Zm16.2,14.783H18.11V16.9c0-1.508-.024-3.448-1.983-3.448-1.986,0-2.289,1.644-2.289,3.341v6.433H10.026V10.217h3.658V12h.053a3.974,3.974,0,0,1,3.611-2.1c3.864,0,4.578,2.693,4.578,6.2Z" fill="#fff"/>
  </g>
</svg>
