<svg id="Groupe_1" data-name="Groupe 1" xmlns="http://www.w3.org/2000/svg" width="27.131" height="27.131" viewBox="0 0 27.131 27.131">
  <g id="Dark_Blue" data-name="Dark Blue">
    <circle id="Ellipse_1" data-name="Ellipse 1" cx="13.566" cy="13.566" r="13.566" fill="#fff"/>
  </g>
  <g id="Logo_FIXED" data-name="Logo — FIXED" transform="translate(6.071 7.767)">
    <path id="Tracé_13" data-name="Tracé 13" d="M94.513,127.461a9.241,9.241,0,0,0,9.3-9.3c0-.142,0-.283-.009-.423a6.653,6.653,0,0,0,1.631-1.693,6.529,6.529,0,0,1-1.878.515A3.282,3.282,0,0,0,105,114.746a6.554,6.554,0,0,1-2.076.794,3.273,3.273,0,0,0-5.573,2.982,9.285,9.285,0,0,1-6.741-3.417,3.273,3.273,0,0,0,1.012,4.366,3.247,3.247,0,0,1-1.481-.409c0,.014,0,.027,0,.042a3.272,3.272,0,0,0,2.624,3.206,3.265,3.265,0,0,1-1.477.056,3.274,3.274,0,0,0,3.055,2.271,6.562,6.562,0,0,1-4.062,1.4,6.658,6.658,0,0,1-.78-.045,9.258,9.258,0,0,0,5.013,1.469" transform="translate(-89.5 -114.507)" fill="#223654"/>
  </g>
</svg>
